<?xml version="1.0" encoding="utf-8"?>
<!-- Generator: Adobe Illustrator 15.0.0, SVG Export Plug-In . SVG Version: 6.00 Build 0)  -->
<!DOCTYPE svg PUBLIC "-//W3C//DTD SVG 1.1//EN" "http://www.w3.org/Graphics/SVG/1.1/DTD/svg11.dtd" [
	<!ENTITY ns_flows "http://ns.adobe.com/Flows/1.0/">
	<!ENTITY ns_extend "http://ns.adobe.com/Extensibility/1.0/">
	<!ENTITY ns_ai "http://ns.adobe.com/AdobeIllustrator/10.0/">
	<!ENTITY ns_graphs "http://ns.adobe.com/Graphs/1.0/">
	<!ENTITY ns_vars "http://ns.adobe.com/Variables/1.0/">
	<!ENTITY ns_imrep "http://ns.adobe.com/ImageReplacement/1.0/">
	<!ENTITY ns_sfw "http://ns.adobe.com/SaveForWeb/1.0/">
	<!ENTITY ns_custom "http://ns.adobe.com/GenericCustomNamespace/1.0/">
	<!ENTITY ns_adobe_xpath "http://ns.adobe.com/XPath/1.0/">
]>
<svg version="1.1"
	 xmlns:x="&ns_extend;" xmlns:i="&ns_ai;" xmlns:graph="&ns_graphs;" i:viewOrigin="0 0" i:rulerOrigin="0 510.2402" i:pageBounds="0 0 510.2402 -510.2402"
	 xmlns="http://www.w3.org/2000/svg" xmlns:xlink="http://www.w3.org/1999/xlink" xmlns:a="http://ns.adobe.com/AdobeSVGViewerExtensions/3.0/"
	 x="0px" y="0px" width="510.24px" height="510.24px" viewBox="0 0 510.24 510.24" enable-background="new 0 0 510.24 510.24"
	 xml:space="preserve">
<metadata>
	<variableSets  xmlns="&ns_vars;">
		<variableSet  locked="none" varSetName="binding1">
			<variables></variables>
			<v:sampleDataSets  xmlns:v="&ns_vars;" xmlns="&ns_custom;"></v:sampleDataSets>
		</variableSet>
	</variableSets>
</metadata>
<g id="Ebene_1" i:layer="yes" i:dimmedPercent="50" i:rgbTrio="#4F008000FFFF">
	<g>
		<path i:knockout="Off" fill="#005A5D" d="M510.183,255.179c0,140.868-114.191,255.062-255.062,255.062
			c-140.868,0-255.062-114.193-255.062-255.062S114.252,0.114,255.12,0.114C395.991,0.114,510.183,114.311,510.183,255.179z"/>
		<polygon i:knockout="Off" fill="#FFFFFF" points="184.019,330.352 362.57,438.515 315.897,438.515 171.621,330.352 		"/>
		<polyline i:knockout="Off" fill="#FFFFFF" points="321.083,478.521 321.083,438.515 315.897,438.515 318.493,478.521 		"/>
		<polyline i:knockout="Off" fill="#FFFFFF" points="357.387,467.314 357.387,438.515 362.57,438.515 360.751,466.553 		"/>
		<polyline i:knockout="Off" fill="#FFFFFF" points="318.493,438.515 358.499,438.515 358.499,443.697 318.493,441.105 		"/>
		<polyline i:knockout="Off" fill="#FFFFFF" points="173.04,341.309 173.04,330.354 171.621,330.354 172.329,341.309 		"/>
		<polyline i:knockout="Off" fill="#FFFFFF" points="182.977,338.24 182.977,330.354 184.4,330.354 183.9,338.031 		"/>
		<polygon i:knockout="Off" points="110.326,68.976 156.516,72.875 208.104,96.869 212.005,134.962 167.313,188.051 
			126.522,182.053 95.93,106.168 109.126,68.376 		"/>
		<polygon i:knockout="Off" points="326.325,26.125 353.678,63.548 369.401,118.229 343.205,146.156 273.819,147.242 
			251.593,112.516 288.808,39.65 325.991,24.825 		"/>
		<path i:knockout="Off" fill="#FFFFFF" d="M95.67,164.758c0,0,17.174,55.365,66.779,31.51c0,0,44.66,23.28,57.853,27.15
			c0,0-22.767-29.846-27.854-46.107c0,0,65.886-48.844,28.784-81.146C207.146,83.9,189.931,71.185,172.101,63.04
			c-12.77-6.487-50.39-21.365-77.188,11.75c-6.908,8.545-7.387,11.52-8.652,18.81C82.328,108.372,82.644,130.691,95.67,164.758z
			 M117.411,105.088c-1.003-1.498-1.672-2.807-1.094-4.305c4.817-9.223,11.603-17.638,26.567-21.375
			c22.653-5.664,46.547,10.26,55.195,31.693c4.459,11.036,3.958,21.723,0.386,30.881c-7.303,18.696-32.917,38.885-56.248,30.255
			C120.466,164.189,104.746,125.328,117.411,105.088z"/>
		<path i:knockout="Off" fill="#FFFFFF" d="M126.146,98.319c-14.063,17.937-8.822,59.47,15.937,66.13
			c21.542,5.793,49.66-15.721,49.655-37.015c0.007-21.886-15.194-36.651-28.836-41.34c-2.789-0.956-6.777-1.378-9.971-1.411
			C143.003,84.6,130.957,92.174,126.146,98.319z M143.091,116.017c-7.378,3.485-11.596-8.685-6.634-10.966
			C141.903,102.551,147.678,110.646,143.091,116.017z M162.886,113.51c-5.166-0.586-4.356-9.203-2.063-12.852
			C171.179,96.65,172.542,114.611,162.886,113.51z M139.03,135.765c6.098-8.881,27.604-9.048,34.7-2.2
			c2.283,2.204,5.045,8.337,0.874,10.385c-2.189-1.236-1.694-3.994-2.856-5.323c-5.095-5.823-25.397-5.387-28.081,2.68
			c-0.952,2.852,1.509,6.528-2.626,6.89C136.201,148.613,137.197,138.445,139.03,135.765z"/>
		<g i:knockout="Off">
			<g>
				<path i:knockout="Off" fill="none" d="M299.633,50.229c-0.157-0.042-0.148-0.178-0.266-0.241
					c-1.344,2.168-3.894,3.158-4.139,5.417c3.308-0.466,6.597-6.009,9.317-7.879c3.188-2.182,7.648-4.273,11.431-5.129
					c9.681-2.2,20.823,1.073,27.918,8.06c5.327,5.249,7.569,13.175,4.61,20.139c-2.936,6.905-3.242,14.368-6.196,21.251
					c-1.769,4.117-4.364,7.952-7.286,11.341c-2.018,2.354-5.393,4.924-6.811,7.643c-5.787,3.603-16.59,5.029-20.395,10.859
					c-2.875,4.396-6.779,8.664-11.948,10.418c-8.029,2.713-12.631,0.828-19.265-4.348c-0.05-0.137-4.065-6.518-3.917-6.58
					c-0.576-1.731-2.66-10.839-0.864-11.944c1.73-1.062,3.86-13.375,4.093-15.655c0.345-0.059,1.079-2.93,1.634-3.576
					c-3.825-2.408-8.792,23.151-8.234,26.1c1.796,9.48,10.291,20.725,20.995,20.854c8.585,0.107,14.469-4.938,18.864-12.025
					c4.606-7.424,17.312-7.205,23.694-13.096c7.816-7.207,12.025-17.772,14.85-27.75c3.085-10.877,7.216-19.582,0.806-30.335
					C339.363,38.378,309.607,32.087,299.633,50.229z"/>
				<path i:knockout="Off" fill="none" d="M299.433,105.771c1.392-1.179,3.439-1.392,4.573-3.288
					c0.661-1.123,0.513-2.301,1.294-3.456c1.326-1.955,4.55-2.162,6.596-1.628c2.16-1.215,4.668-1.906,6.543-3.588
					c4.963-4.458,2.326-14.377-1.401-18.642c1.065-1.817-9.159-8.101-8.42-11.641c-0.093,0.451,1.078-0.043,1.283-0.248
					c1.936-0.217,4.28,0.017,5.421-1.636c1.418-2.053,1.116-4.931,2.613-7.063c2.96-4.2,12.71-1.04,16.562,0.502
					c8.286,3.322,9.774,9.85,6.858,18.086c-1.267,3.584-3.137,8.597-6.049,11.056c-3.392,2.849-3.028,5.132-5.368,8.632
					c-5.076,7.583-13.72,11.786-20.391,17.641c3.42,0.319,12.918-7.022,15.742-9.584c2.88-2.606,6.462-3.052,8.29-6.788
					c1.397-2.854,1.937-6.04,3.053-8.999c2.392-6.287,8.081-12.158,7.513-19.406c-0.502-6.383-4.638-11.636-10.471-14.04
					c-9.654-3.972-23.03,1.415-26.333,11.201c-1.916,5.67,0.14,9.473,3.615,14.339c3.304,4.619,7.657,11.106,3.085,16.568
					c0.387-4.266-0.828-6.777-4.197-8.965c-1.735-1.125-3.665-2.802-2.73-5.123c-2.192-2.729-2.183,4.025-2.326,4.667
					c-0.571,2.478-2.773,5.757-4.866,7.222c-3.462,2.434-9.286,4.333-9.054,9.577C291.04,105.021,295.963,108.699,299.433,105.771z"
					/>
				<path i:knockout="Off" fill="#FFFFFF" d="M382.047,106.029c-4.229-16.974-10.607-35.978-19.921-51.804
					c-6.317-11.828-27.2-43.451-65.55-32.42c-9.885,2.843-11.857,4.87-16.733,9.786c-10.955,9.229-22.698,26.526-30.992,59.669
					c0,0-16.545,51.709,34.337,60.041c0,0,21.773,41.84,29.825,51.895c0,0-1.451-35.129,3.374-50.342
					C316.387,152.854,393.181,150.744,382.047,106.029z M299.922,91.59c2.093-1.465,4.295-4.744,4.866-7.222
					c0.144-0.642,0.134-7.396,2.326-4.667c-0.935,2.321,0.995,3.998,2.73,5.123c3.369,2.188,4.584,4.699,4.197,8.965
					c4.572-5.462,0.219-11.949-3.085-16.568c-3.476-4.866-5.531-8.669-3.615-14.339c3.303-9.786,16.679-15.172,26.333-11.201
					c5.833,2.404,9.969,7.657,10.471,14.04c0.568,7.248-5.121,13.119-7.513,19.406c-1.116,2.959-1.655,6.146-3.053,8.999
					c-1.828,3.736-5.41,4.182-8.29,6.788c-2.824,2.562-12.322,9.903-15.742,9.584c6.671-5.854,15.314-10.058,20.391-17.641
					c2.34-3.5,1.977-5.783,5.368-8.632c2.912-2.459,4.782-7.472,6.049-11.056c2.916-8.236,1.428-14.764-6.858-18.086
					c-3.853-1.542-13.603-4.703-16.562-0.502c-1.497,2.133-1.195,5.011-2.613,7.063c-1.141,1.653-3.485,1.419-5.421,1.636
					c-0.205,0.205-1.376,0.699-1.283,0.248c-0.739,3.54,9.485,9.823,8.42,11.641c3.728,4.265,6.364,14.184,1.401,18.642
					c-1.875,1.682-4.383,2.373-6.543,3.588c-2.046-0.534-5.27-0.327-6.596,1.628c-0.781,1.155-0.633,2.333-1.294,3.456
					c-1.134,1.896-3.182,2.109-4.573,3.288c-3.47,2.929-8.393-0.749-8.564-4.604C290.636,95.923,296.46,94.023,299.922,91.59z
					 M347.719,84.086c-2.824,9.978-7.033,20.543-14.85,27.75c-6.383,5.891-19.088,5.672-23.694,13.096
					c-4.396,7.088-10.279,12.133-18.864,12.025c-10.704-0.129-19.199-11.373-20.995-20.854c-0.558-2.948,4.409-28.508,8.234-26.1
					c-0.555,0.646-1.289,3.518-1.634,3.576c-0.232,2.28-2.362,14.593-4.093,15.655c-1.796,1.105,0.288,10.213,0.864,11.944
					c-0.148,0.062,3.867,6.443,3.917,6.58c6.634,5.176,11.235,7.061,19.265,4.348c5.169-1.754,9.073-6.021,11.948-10.418
					c3.805-5.83,14.607-7.257,20.395-10.859c1.418-2.719,4.793-5.289,6.811-7.643c2.922-3.389,5.518-7.224,7.286-11.341
					c2.954-6.884,3.261-14.347,6.196-21.251c2.959-6.963,0.717-14.89-4.61-20.139c-7.095-6.986-18.237-10.259-27.918-8.06
					c-3.782,0.856-8.243,2.947-11.431,5.129c-2.721,1.871-6.01,7.414-9.317,7.879c0.245-2.259,2.795-3.249,4.139-5.417
					c0.117,0.063,0.108,0.198,0.266,0.241c9.975-18.142,39.73-11.852,48.892,3.521C354.935,64.504,350.804,73.209,347.719,84.086z"
					/>
			</g>
			<path i:knockout="Off" d="M277.126,94.142c0.25-0.394,0.455-0.954,0.729-1.701c0.193-0.524,0.515-1.402,0.662-1.606l0.963-1.122
				l-1.251-0.787c-1.082-0.681-2.381-0.376-3.438,0.901c-3.799,4.585-7.245,23.787-6.728,26.515
				c1.975,10.423,11.035,21.757,22.231,21.892l0.284,0.002c7.971,0,14.408-4.131,19.68-12.63c2.329-3.753,7.068-5.397,12.087-7.14
				c4.113-1.428,8.368-2.904,11.388-5.691c8.722-8.042,12.858-20.025,15.213-28.34c0.406-1.436,0.832-2.833,1.248-4.201
				c2.713-8.909,5.273-17.323-0.574-27.135c-5.34-8.959-17.432-15.214-29.41-15.214c-9.315,0-16.723,3.741-21.012,10.572
				l-0.287-0.151l-0.627,1.013c-0.451,0.727-1.089,1.318-1.765,1.943c-1.106,1.023-2.361,2.184-2.56,4.008l-0.178,1.628l1.624-0.228
				c2.529-0.356,4.714-2.771,6.825-5.106c1.103-1.219,2.144-2.371,3.035-2.984c3.245-2.222,7.56-4.161,10.992-4.938
				c1.889-0.428,3.872-0.646,5.896-0.646c7.73,0,15.521,3.129,20.845,8.371c5.263,5.186,6.963,12.539,4.331,18.73
				c-1.506,3.544-2.343,7.236-3.151,10.807c-0.825,3.647-1.606,7.094-3.042,10.441c-1.592,3.701-3.974,7.407-7.084,11.014
				c-0.668,0.779-1.506,1.596-2.392,2.461c-1.655,1.613-3.363,3.277-4.404,5.1c-1.972,1.168-4.544,2.115-7.259,3.115
				c-5.213,1.921-10.605,3.907-13.249,7.957c-3.39,5.185-7.188,8.518-11.288,9.908c-2.33,0.787-4.359,1.17-6.207,1.17
				c-4.145,0-7.554-1.971-11.672-5.163c-0.135-0.225-0.369-0.604-0.786-1.281c-0.772-1.25-2.527-4.099-2.876-4.776l-0.023-0.07
				c-0.863-2.597-2.012-9.311-1.32-10.514C274.939,108.552,276.777,96.58,277.126,94.142z M315.695,41.153
				c-3.525,0.798-7.893,2.715-11.312,4.947c5.085-4.822,11.773-5.667,15.826-5.667c0.378,0,0.755,0.007,1.133,0.021
				C319.409,40.506,317.513,40.74,315.695,41.153z M296.278,133.314c4.654-1.579,8.896-5.256,12.607-10.929
				c2.183-3.345,7.171-5.183,11.995-6.959c2.972-1.095,5.778-2.128,8.006-3.515l0.296-0.184l0.16-0.31
				c0.828-1.587,2.49-3.207,4.098-4.774c0.93-0.905,1.808-1.762,2.548-2.624c3.278-3.802,5.799-7.729,7.492-11.67
				c1.53-3.565,2.372-7.286,3.188-10.886c0.784-3.46,1.594-7.038,3.011-10.371c0.268-0.63,0.498-1.27,0.688-1.917
				c-0.474,3.284-1.495,6.641-2.612,10.312c-0.42,1.384-0.852,2.797-1.263,4.249c-2.271,8.018-6.24,19.555-14.487,27.16
				c-2.63,2.427-6.629,3.815-10.496,5.157c-5.217,1.81-10.612,3.683-13.417,8.204c-4.769,7.688-10.496,11.424-17.513,11.424
				l-0.253-0.002c-3.438-0.041-6.719-1.381-9.596-3.519C285.312,134.797,289.88,135.477,296.278,133.314z M271.772,106.891
				c0.572-2.754,1.292-5.732,2.052-8.356C273.231,101.595,272.437,105.037,271.772,106.891z"/>
			<path i:knockout="Off" d="M308.576,79.484l-0.468-0.582c-0.223-0.278-0.902-1.123-1.917-1.123c-2.2,0-2.433,3.307-2.604,5.723
				c-0.021,0.285-0.033,0.507-0.042,0.58c-0.501,2.17-2.536,5.189-4.357,6.464c-0.709,0.499-1.54,0.983-2.419,1.495
				c-3.293,1.921-7.392,4.311-7.175,9.184c0.161,3.601,3.512,6.88,7.029,6.88c1.322,0,2.578-0.47,3.634-1.36
				c0.405-0.344,0.942-0.611,1.511-0.893c1.084-0.54,2.433-1.212,3.336-2.723c0.405-0.688,0.57-1.355,0.714-1.947
				c0.135-0.545,0.25-1.014,0.537-1.439c0.562-0.828,1.858-1.322,3.469-1.322c0.613,0,1.219,0.074,1.751,0.213l0.497,0.129
				l0.449-0.252c0.701-0.395,1.447-0.731,2.236-1.09c1.555-0.703,3.161-1.431,4.531-2.661c5.395-4.843,3.083-14.919-0.88-19.934
				c-0.022-1.405-1.646-2.953-3.88-5.083c-1.492-1.424-3.798-3.624-4.482-5.076c0.102-0.046,0.199-0.096,0.29-0.148
				c0.266-0.023,0.538-0.04,0.812-0.058c1.762-0.113,3.954-0.252,5.221-2.091c0.837-1.21,1.153-2.566,1.457-3.878
				c0.276-1.181,0.534-2.297,1.152-3.175c0.726-1.03,2.189-1.553,4.348-1.553c4.122,0,9.229,1.917,10.696,2.505
				c7.05,2.827,9.055,8.217,6.131,16.479c-1.007,2.848-2.881,8.15-5.666,10.504c-2.324,1.951-3.069,3.683-3.857,5.516
				c-0.453,1.053-0.92,2.14-1.752,3.383c-3.219,4.81-8.086,8.318-12.794,11.711c-2.487,1.793-5.06,3.646-7.378,5.68l-2.226,1.954
				l2.948,0.274c0.111,0.011,0.226,0.017,0.345,0.017c4.488-0.001,14.574-8.293,16.372-9.925c0.975-0.881,2.043-1.492,3.173-2.14
				c2.012-1.151,4.091-2.341,5.407-5.033c0.882-1.802,1.435-3.708,1.969-5.552c0.359-1.239,0.699-2.411,1.131-3.555
				c0.765-2.01,1.882-3.975,3.062-6.055c2.428-4.271,4.938-8.689,4.529-13.905c-0.524-6.68-4.838-12.474-11.258-15.119
				c-2.276-0.937-4.777-1.412-7.431-1.412c-9.315,0-17.978,5.629-20.595,13.383c-2.162,6.396,0.436,10.799,3.786,15.488
				c2.517,3.521,4.844,7.16,4.827,10.557c-0.729-1.879-2.096-3.391-4.208-4.763c-2.572-1.668-2.577-2.744-2.241-3.578
				L308.576,79.484z M334.245,88.426c-0.527,1.819-1.025,3.537-1.81,5.139c-0.974,1.989-2.554,2.895-4.384,3.941
				c-0.163,0.094-0.327,0.188-0.491,0.283c1.253-1.297,2.414-2.693,3.438-4.223c0.961-1.438,1.498-2.688,1.973-3.791
				c0.519-1.203,0.958-2.226,1.849-3.283C334.617,87.141,334.429,87.789,334.245,88.426z M333.188,52.86
				c0.99,0.408,1.922,0.902,2.787,1.473c-0.324-0.15-0.66-0.294-1.004-0.432c-1.4-0.561-4.318-1.638-7.463-2.245
				C329.536,51.738,331.444,52.142,333.188,52.86z M316.62,54.271c-0.705,1.18-1.007,2.48-1.277,3.642
				c-0.263,1.129-0.512,2.197-1.072,3.007c-0.526,0.765-1.643,0.89-3.285,0.995c-0.416,0.027-0.829,0.053-1.227,0.098l-0.443,0.05
				l-0.248,0.247c-0.052,0.028-0.123,0.062-0.178,0.087C310.295,59.064,313.11,56.202,316.62,54.271z M308.55,63.289
				c0.097-0.287,0.204-0.569,0.32-0.85c0.229,0.018,0.528,0.132,0.755,0.41c0.218,0.266,0.307,0.615,0.241,0.936l-1.385-0.287
				C308.503,63.429,308.526,63.36,308.55,63.289z M311.994,76.479c-2.892-4.05-4.396-6.948-4.067-10.398
				c0.971,1.813,2.929,3.68,4.844,5.507c1.068,1.019,2.641,2.519,3.009,3.203l-0.307,0.525l0.604,0.691
				c3.508,4.014,5.735,13.059,1.508,16.853c-0.698,0.628-1.518,1.108-2.4,1.546C320.267,88.045,314.895,80.533,311.994,76.479z
				 M309.15,85.895c2.979,1.934,3.96,4.042,3.621,7.779l-0.175,1.934c-0.297,0.141-0.594,0.287-0.887,0.441
				c-0.602-0.117-1.244-0.18-1.886-0.18c-2.494,0-4.527,0.891-5.581,2.443c-0.543,0.804-0.733,1.578-0.901,2.26
				c-0.118,0.482-0.22,0.897-0.43,1.254c-0.517,0.862-1.333,1.27-2.28,1.74c-0.679,0.338-1.382,0.688-2.021,1.23
				c-0.596,0.502-1.264,0.756-1.986,0.756c-2.121,0-4.383-2.242-4.481-4.441c-0.147-3.333,2.795-5.05,5.911-6.866
				c0.928-0.54,1.804-1.052,2.599-1.61c2.325-1.626,4.738-5.206,5.381-7.985c0.043-0.196,0.06-0.425,0.099-0.969
				c0.016-0.228,0.032-0.445,0.05-0.651C306.756,84.027,307.748,84.984,309.15,85.895z"/>
		</g>
		<g>
			<path i:knockout="Off" fill="#B5B5B5" d="M342.58,309.072c-0.65-0.301-1.523-0.445-2.661-0.445
				c-4.86,0-13.318,2.638-19.616,5.107c-3.072,1.205-13.243,5.388-15.075,8.578c-1.429,2.484-0.994,16.42-0.164,37.396
				c0.512,13.047,1.154,29.273,0.225,30.877c-0.122,0.1-0.837,0.488-4.496,0.488c-4.003,0-9.854-0.438-16.054-0.904
				c-6.701-0.502-13.634-1.02-18.773-1.02c-6.017,0-7.501,0.74-8.118,1.389c-0.398,0.41-1.443,1.502-2.044,12.105
				c-0.33,5.857-0.469,13.779-0.396,22.312c0.118,12.486,0.833,31.955,2.341,34.418c2.413,3.941,31.96,21.363,35.32,23.337
				c0.118,0.07,0.249,0.104,0.378,0.104c0.152,0,0.3-0.046,0.426-0.132c0.238-0.164,0.36-0.453,0.312-0.738
				c-0.087-0.533-8.807-53.451-2.188-62.658c0.474-0.656,0.987-1.021,1.568-1.115c1.38-0.217,3.238-0.329,5.686-0.329
				c4.745,0,11.005,0.417,17.061,0.823c6.119,0.407,12.445,0.827,17.297,0.827c5.188,0,8.014-0.466,9.164-1.503
				c0.442-0.404,1.488-1.352,2.466-14.824c0.577-7.854,1.007-18.521,1.22-30.033c0.352-19.439,0.125-46.323-1.688-58.115
				C344.048,310.33,343.258,309.383,342.58,309.072z"/>
			<path i:knockout="Off" fill="#B5B5B5" d="M300.318,294.225c5.126,4.179,12.231,6.609,20.54,7.031
				c1.324,0.067,2.609,0.102,3.812,0.102c9.939,0,16.131-2.33,19.477-7.332c3.083-4.604,3.703-11.168,3.703-20.267
				c0-8.862-2.93-17.183-8.248-23.425c-5.257-6.175-12.354-9.784-19.98-10.167c-0.877-0.046-1.741-0.067-2.573-0.067
				c-22.612,0-25.729,16.176-25.729,33.659C291.32,282.477,294.346,289.361,300.318,294.225z"/>
		</g>
		<g>
			<path i:knockout="Off" fill="#B5B5B5" d="M189.952,346.502c1.271-1.053,4.267-1.543,9.424-1.543
				c5.812,0,13.336,0.624,20.614,1.229c6.398,0.528,12.445,1.031,16.538,1.031c3.941,0,4.658-0.486,4.78-0.628
				c0.187-0.267,0.804-2.071,0.994-14.06c0.104-6.993,0.062-16.465-0.144-28.145c-0.343-19.895-1.023-39.574-1.034-39.77
				c-0.012-0.357,0.175-0.676,0.444-0.76c0.269-0.086,0.552,0.084,0.668,0.406l6.473,17.58c3.117-3.645,15.275-17.602,18.727-17.602
				c0.135,0,0.265,0.021,0.387,0.057c0.56,0.173,0.894,1.04,1.236,3.193c1.246,7.826,2.213,32.52,2.258,57.436
				c0.021,12.85-0.213,24.056-0.668,32.397c-0.734,13.342-1.846,15.86-2.619,16.595c-0.938,0.891-3.398,2.08-13.838,2.079
				c-8.07,0-18.313-0.706-26.544-1.27c-5.691-0.394-10.601-0.731-13.257-0.731c-0.678,0-1.194,0.02-1.537,0.064
				c-0.062,0.008-0.244,0.032-0.482,0.418c-3.342,5.348-0.408,44.801,1.003,59.549c0.03,0.326-0.104,0.637-0.338,0.771
				c-0.079,0.047-0.157,0.067-0.239,0.067c-0.164,0-0.321-0.085-0.438-0.249c-0.825-1.189-20.285-29.207-22.616-35.229
				c-1.249-3.224-2.573-15.266-2.96-26.838C186.506,364.031,186.544,349.32,189.952,346.502z"/>
			<path i:knockout="Off" fill="#B5B5B5" d="M233.335,226.746c0-15.432,2.227-29.711,18.379-29.711c1.177,0,2.432,0.077,3.729,0.23
				c5.98,0.707,11.494,3.959,15.514,9.156c4.172,5.392,6.478,12.612,6.485,20.324c0.019,9.822-1.931,17.322-5.79,22.279
				c-3.726,4.783-9.193,7.207-16.262,7.207C243.228,256.232,233.335,243.004,233.335,226.746z"/>
		</g>
	</g>
</g>
</svg>
