<?xml version="1.0" encoding="utf-8"?>
<!-- Generator: Adobe Illustrator 15.0.0, SVG Export Plug-In . SVG Version: 6.00 Build 0)  -->
<!DOCTYPE svg PUBLIC "-//W3C//DTD SVG 1.1//EN" "http://www.w3.org/Graphics/SVG/1.1/DTD/svg11.dtd" [
	<!ENTITY ns_flows "http://ns.adobe.com/Flows/1.0/">
	<!ENTITY ns_extend "http://ns.adobe.com/Extensibility/1.0/">
	<!ENTITY ns_ai "http://ns.adobe.com/AdobeIllustrator/10.0/">
	<!ENTITY ns_graphs "http://ns.adobe.com/Graphs/1.0/">
	<!ENTITY ns_vars "http://ns.adobe.com/Variables/1.0/">
	<!ENTITY ns_imrep "http://ns.adobe.com/ImageReplacement/1.0/">
	<!ENTITY ns_sfw "http://ns.adobe.com/SaveForWeb/1.0/">
	<!ENTITY ns_custom "http://ns.adobe.com/GenericCustomNamespace/1.0/">
	<!ENTITY ns_adobe_xpath "http://ns.adobe.com/XPath/1.0/">
]>
<svg version="1.1"
	 xmlns:x="&ns_extend;" xmlns:i="&ns_ai;" xmlns:graph="&ns_graphs;" i:viewOrigin="0 0" i:rulerOrigin="0 510.2402" i:pageBounds="0 0 510.2402 -510.2402"
	 xmlns="http://www.w3.org/2000/svg" xmlns:xlink="http://www.w3.org/1999/xlink" xmlns:a="http://ns.adobe.com/AdobeSVGViewerExtensions/3.0/"
	 x="0px" y="0px" width="510.24px" height="510.24px" viewBox="0 0 510.24 510.24" enable-background="new 0 0 510.24 510.24"
	 xml:space="preserve">
<metadata>
	<variableSets  xmlns="&ns_vars;">
		<variableSet  locked="none" varSetName="binding1">
			<variables></variables>
			<v:sampleDataSets  xmlns:v="&ns_vars;" xmlns="&ns_custom;"></v:sampleDataSets>
		</variableSet>
	</variableSets>
</metadata>
<g id="Ebene_1" i:layer="yes" i:dimmedPercent="50" i:rgbTrio="#4F008000FFFF">
	<circle i:knockout="Off" fill="#005A5D" cx="255.12" cy="255.12" r="254.693"/>
	<path i:knockout="Off" fill="none" d="M35.849,128.195c-0.684,1.201-1.357,2.407-2.022,3.62
		C34.49,130.603,35.165,129.396,35.849,128.195z"/>
	<path i:knockout="Off" fill="#005A5D" d="M36.044,127.86c-0.064,0.112-0.131,0.223-0.195,0.335
		C35.913,128.083,35.979,127.973,36.044,127.86z"/>
	<path i:knockout="Off" fill="none" d="M158.312,491.172c0.873,0.79,2.704,1.482,5.162,1.898c-1.781-0.693-3.551-1.409-5.312-2.143
		C158.211,491.039,158.262,491.127,158.312,491.172z"/>
	<path i:knockout="Off" fill="#FFFFFF" d="M294.704,507.141c-0.428,0.07-0.854,0.138-1.281,0.205
		C293.851,507.281,294.276,507.209,294.704,507.141z"/>
	<path i:knockout="Off" fill="#B5B5B5" d="M169.75,317.016c-18.041-0.906-20.564,10.963-20.564,24.477
		c0,13.516,10.2,19.36,21.545,19.935c17.865,0.907,19.582-6.419,19.582-19.935C190.312,327.979,181.091,317.588,169.75,317.016z"/>
	<path i:knockout="Off" fill="#B5B5B5" d="M257.304,206.039c-32.682-1.643-37.248,19.85-37.248,44.334
		c0,24.482,18.477,35.067,39.021,36.111c32.365,1.643,35.473-11.629,35.473-36.111C294.55,225.889,277.848,207.078,257.304,206.039z
		"/>
	<path i:knockout="Off" fill="#B5B5B5" d="M502.931,238.584c-0.699-16.455-3.763-31.21-18.666-35.439
		c-3.984-1.132-8.803-1.52-14.661-0.976c-17.46,1.616-31.004,18.244-30.118,39.097c0.885,20.854,4.012,32.043,31.519,29.477
		c7.211-0.674,14.057-2.723,19.554-6.36C498.37,259.211,503.45,250.825,502.931,238.584z"/>
	<path i:knockout="Off" fill="#005A5D" d="M296.78,506.796c-0.692,0.114-1.383,0.236-2.076,0.345
		C295.396,507.029,296.089,506.914,296.78,506.796z"/>
	<path i:knockout="Off" fill="#005A5D" d="M292.035,507.568c0.464-0.07,0.925-0.148,1.388-0.223
		c-0.461,0.07-0.926,0.129-1.387,0.195C292.035,507.549,292.035,507.559,292.035,507.568z"/>
	<path i:knockout="Off" fill="none" d="M288.034,72.83c0.99-0.552,1.982-0.831,3.068-0.843c3.436-0.029,5.27,2.208,5.391,5.459
		c0.014,1.623-0.34,2.438-0.604,3.071c-0.978,2.268-3.314,4.001-8.38,4.045c-1.629,0.02-3.259-0.058-4.889-0.223l0.153,16.6
		l16.016-0.146l-0.052-5.594c1.085-0.192,3.435-0.573,5.951-2.224c7.106-4.487,7.384-13.511,7.362-15.676
		c-0.07-7.942-4.21-15.12-12.018-17.845c-2.723-0.969-5.621-1.304-8.516-1.275c-2.172,0.021-7.876,0.071-13.268,3.55
		c-5.581,3.571-7.434,8.645-7.953,10.992c-0.7,2.624-0.77,4.974-0.762,5.875l16.107-0.061
		C285.638,77.725,285.333,74.479,288.034,72.83z"/>
	<path i:knockout="Off" fill="none" d="M291.048,104.924c-5.431,0.049-9.913,4.513-9.861,9.928c0.033,3.516,2.137,6.024,2.959,6.918
		c2.646,2.501,5.727,2.837,6.994,2.823c5.428-0.048,9.822-4.421,9.77-9.925C300.86,109.254,296.474,104.874,291.048,104.924z"/>
	<path i:knockout="Off" fill="none" d="M169.75,317.016c-18.041-0.906-20.564,10.963-20.564,24.477
		c0,13.516,10.2,19.36,21.545,19.935c17.865,0.907,19.582-6.419,19.582-19.935C190.312,327.979,181.091,317.588,169.75,317.016z"/>
	<path i:knockout="Off" fill="none" d="M184.254,100.476c8.313,2.776,17.327-1.591,20.157-10.018
		c2.781-8.292-1.6-17.281-9.912-20.053c-8.311-2.776-17.509,1.686-20.293,9.975c-1.807,5.386,0.081,10.319,0.863,12.116
		C177.79,97.707,182.314,99.829,184.254,100.476z"/>
	<path i:knockout="Off" fill="none" d="M502.931,238.584c-0.699-16.455-3.763-31.21-18.666-35.439
		c-3.984-1.132-8.803-1.52-14.661-0.976c-17.46,1.616-31.004,18.244-30.118,39.097c0.885,20.854,4.012,32.043,31.519,29.477
		c7.211-0.674,14.057-2.723,19.554-6.36C498.37,259.211,503.45,250.825,502.931,238.584z"/>
	<path i:knockout="Off" fill="none" d="M257.304,206.039c-32.682-1.643-37.248,19.85-37.248,44.334
		c0,24.482,18.477,35.067,39.021,36.111c32.365,1.643,35.473-11.629,35.473-36.111C294.55,225.889,277.848,207.078,257.304,206.039z
		"/>
	<path i:knockout="Off" fill="none" d="M184.254,100.476c8.313,2.776,17.327-1.591,20.157-10.018
		c2.781-8.292-1.6-17.281-9.912-20.053c-8.311-2.776-17.509,1.686-20.293,9.975c-1.807,5.386,0.081,10.319,0.863,12.116
		C177.79,97.707,182.314,99.829,184.254,100.476z"/>
	<path i:knockout="Off" fill="none" d="M288.034,72.83c0.99-0.552,1.982-0.831,3.068-0.843c3.436-0.029,5.27,2.208,5.391,5.459
		c0.014,1.623-0.34,2.438-0.604,3.071c-0.978,2.268-3.314,4.001-8.38,4.045c-1.629,0.02-3.259-0.058-4.889-0.223l0.153,16.6
		l16.016-0.146l-0.052-5.594c1.085-0.192,3.435-0.573,5.951-2.224c7.106-4.487,7.384-13.511,7.362-15.676
		c-0.07-7.942-4.21-15.12-12.018-17.845c-2.723-0.969-5.621-1.304-8.516-1.275c-2.172,0.021-7.876,0.071-13.268,3.55
		c-5.581,3.571-7.434,8.645-7.953,10.992c-0.7,2.624-0.77,4.974-0.762,5.875l16.107-0.061
		C285.638,77.725,285.333,74.479,288.034,72.83z"/>
	<path i:knockout="Off" fill="none" d="M291.048,104.924c-5.431,0.049-9.913,4.513-9.861,9.928c0.033,3.516,2.137,6.024,2.959,6.918
		c2.646,2.501,5.727,2.837,6.994,2.823c5.428-0.048,9.822-4.421,9.77-9.925C300.86,109.254,296.474,104.874,291.048,104.924z"/>
	<path i:knockout="Off" fill="none" d="M169.75,317.016c-18.041-0.906-20.564,10.963-20.564,24.477
		c0,13.516,10.2,19.36,21.545,19.935c17.865,0.907,19.582-6.419,19.582-19.935C190.312,327.979,181.091,317.588,169.75,317.016z"/>
	<path i:knockout="Off" fill="none" d="M502.931,238.584c-0.699-16.455-3.763-31.21-18.666-35.439
		c-3.984-1.132-8.803-1.52-14.661-0.976c-17.46,1.616-31.004,18.244-30.118,39.097c0.885,20.854,4.012,32.043,31.519,29.477
		c7.211-0.674,14.057-2.723,19.554-6.36C498.37,259.211,503.45,250.825,502.931,238.584z"/>
	<path i:knockout="Off" fill="none" d="M257.304,206.039c-32.682-1.643-37.248,19.85-37.248,44.334
		c0,24.482,18.477,35.067,39.021,36.111c32.365,1.643,35.473-11.629,35.473-36.111C294.55,225.889,277.848,207.078,257.304,206.039z
		"/>
	<path i:knockout="Off" fill="none" d="M184.254,100.476c8.313,2.776,17.327-1.591,20.157-10.018
		c2.781-8.292-1.6-17.281-9.912-20.053c-8.311-2.776-17.509,1.686-20.293,9.975c-1.807,5.386,0.081,10.319,0.863,12.116
		C177.79,97.707,182.314,99.829,184.254,100.476z"/>
	<path i:knockout="Off" fill="none" d="M288.034,72.83c0.99-0.552,1.982-0.831,3.068-0.843c3.436-0.029,5.27,2.208,5.391,5.459
		c0.014,1.623-0.34,2.438-0.604,3.071c-0.978,2.268-3.314,4.001-8.38,4.045c-1.629,0.02-3.259-0.058-4.889-0.223l0.153,16.6
		l16.016-0.146l-0.052-5.594c1.085-0.192,3.435-0.573,5.951-2.224c7.106-4.487,7.384-13.511,7.362-15.676
		c-0.07-7.942-4.21-15.12-12.018-17.845c-2.723-0.969-5.621-1.304-8.516-1.275c-2.172,0.021-7.876,0.071-13.268,3.55
		c-5.581,3.571-7.434,8.645-7.953,10.992c-0.7,2.624-0.77,4.974-0.762,5.875l16.107-0.061
		C285.638,77.725,285.333,74.479,288.034,72.83z"/>
	<path i:knockout="Off" fill="none" d="M118.88,45.533c0.687-1.234,1.398-2.479,2.119-3.726
		C120.266,43.074,119.548,44.332,118.88,45.533z"/>
	<path i:knockout="Off" fill="none" d="M121.747,40.52c0.587-1.005,1.184-2.013,1.788-3.022
		C122.938,38.493,122.343,39.502,121.747,40.52z"/>
	<path i:knockout="Off" fill="none" d="M291.048,104.924c-5.431,0.049-9.913,4.513-9.861,9.928c0.033,3.516,2.137,6.024,2.959,6.918
		c2.646,2.501,5.727,2.837,6.994,2.823c5.428-0.048,9.822-4.421,9.77-9.925C300.86,109.254,296.474,104.874,291.048,104.924z"/>
	<path i:knockout="Off" fill="none" d="M257.304,206.039c-32.682-1.643-37.248,19.85-37.248,44.334
		c0,24.482,18.477,35.067,39.021,36.111c32.365,1.643,35.473-11.629,35.473-36.111C294.55,225.889,277.848,207.078,257.304,206.039z
		"/>
	<path i:knockout="Off" fill="none" d="M169.75,317.016c-18.041-0.906-20.564,10.963-20.564,24.477
		c0,13.516,10.2,19.36,21.545,19.935c17.865,0.907,19.582-6.419,19.582-19.935C190.312,327.979,181.091,317.588,169.75,317.016z"/>
	<path i:knockout="Off" fill="none" d="M502.931,238.584c-0.699-16.455-3.763-31.21-18.666-35.439
		c-3.984-1.132-8.803-1.52-14.661-0.976c-17.46,1.616-31.004,18.244-30.118,39.097c0.885,20.854,4.012,32.043,31.519,29.477
		c7.211-0.674,14.057-2.723,19.554-6.36C498.37,259.211,503.45,250.825,502.931,238.584z"/>
	<path i:knockout="Off" fill="none" d="M257.304,206.039c-32.682-1.643-37.248,19.85-37.248,44.334
		c0,24.482,18.477,35.067,39.021,36.111c32.365,1.643,35.473-11.629,35.473-36.111C294.55,225.889,277.848,207.078,257.304,206.039z
		"/>
	<path i:knockout="Off" fill="none" d="M169.75,317.016c-18.041-0.906-20.564,10.963-20.564,24.477
		c0,13.516,10.2,19.36,21.545,19.935c17.865,0.907,19.582-6.419,19.582-19.935C190.312,327.979,181.091,317.588,169.75,317.016z"/>
	<path i:knockout="Off" fill="none" d="M471.004,270.742c7.211-0.674,14.057-2.723,19.554-6.36
		c7.812-5.171,12.893-13.557,12.373-25.798c-0.699-16.455-3.763-31.21-18.666-35.439c-3.984-1.132-8.803-1.52-14.661-0.976
		c-17.46,1.616-31.004,18.244-30.118,39.097C440.37,262.119,443.497,273.309,471.004,270.742z"/>
	<path i:knockout="Off" fill="#005A5D" d="M120.999,41.808c0.249-0.43,0.496-0.856,0.748-1.288
		C121.496,40.95,121.247,41.379,120.999,41.808z"/>
	<path i:knockout="Off" d="M410.47,53.137c-2.541-1.953-5.109-3.874-7.724-5.733l-0.327-0.019c2.715,1.95,5.386,3.959,8.02,6.013
		L410.47,53.137z"/>
	<path i:knockout="Off" d="M393.962,144.267c8.821,0.529,15.031-5.361,15.539-13.727c0.39-8.804-5.08-15.11-13.76-15.633
		c-8.532-0.516-14.865,5.08-15.399,13.876C379.837,137.15,385.429,143.753,393.962,144.267z"/>
	<path i:knockout="Off" d="M184.254,98.476c8.313,2.776,17.327-1.591,20.157-10.018c2.781-8.292-1.6-17.281-9.912-20.053
		c-8.311-2.776-17.509,1.686-20.293,9.975c-1.807,5.386,0.081,10.319,0.863,12.116C177.79,95.707,182.314,97.829,184.254,98.476z"/>
	<path i:knockout="Off" d="M291.048,102.924c-5.431,0.049-9.913,4.513-9.861,9.928c0.033,3.516,2.137,6.024,2.959,6.918
		c2.646,2.501,5.727,2.837,6.994,2.823c5.428-0.048,9.822-4.421,9.77-9.925C300.86,107.254,296.474,102.874,291.048,102.924z"/>
	<path i:knockout="Off" d="M288.034,70.83c0.99-0.552,1.982-0.831,3.068-0.843c3.436-0.029,5.27,2.208,5.391,5.459
		c0.014,1.623-0.34,2.438-0.604,3.071c-0.978,2.268-3.314,4.001-8.38,4.045c-1.629,0.02-3.259-0.058-4.889-0.223l0.153,16.6
		l16.016-0.146l-0.052-5.594c1.085-0.192,3.435-0.573,5.951-2.224c7.106-4.487,7.384-13.511,7.362-15.676
		c-0.07-7.942-4.21-15.12-12.018-17.845c-2.723-0.969-5.621-1.304-8.516-1.275c-2.172,0.021-7.876,0.071-13.268,3.55
		c-5.581,3.571-7.434,8.645-7.953,10.992c-0.7,2.624-0.77,4.974-0.762,5.875l16.107-0.061
		C285.638,75.725,285.333,72.479,288.034,70.83z"/>
	<path i:knockout="Off" fill="none" d="M184.254,98.476c8.313,2.776,17.327-1.591,20.157-10.018
		c2.781-8.292-1.6-17.281-9.912-20.053c-8.311-2.776-17.509,1.686-20.293,9.975c-1.807,5.386,0.081,10.319,0.863,12.116
		C177.79,95.707,182.314,97.829,184.254,98.476z"/>
	<path i:knockout="Off" fill="none" d="M291.048,102.924c-5.431,0.049-9.913,4.513-9.861,9.928c0.033,3.516,2.137,6.024,2.959,6.918
		c2.646,2.501,5.727,2.837,6.994,2.823c5.428-0.048,9.822-4.421,9.77-9.925C300.86,107.254,296.474,102.874,291.048,102.924z"/>
	<path i:knockout="Off" fill="none" d="M288.034,70.83c0.99-0.552,1.982-0.831,3.068-0.843c3.436-0.029,5.27,2.208,5.391,5.459
		c0.014,1.623-0.34,2.438-0.604,3.071c-0.978,2.268-3.314,4.001-8.38,4.045c-1.629,0.02-3.259-0.058-4.889-0.223l0.153,16.6
		l16.016-0.146l-0.052-5.594c1.085-0.192,3.435-0.573,5.951-2.224c7.106-4.487,7.384-13.511,7.362-15.676
		c-0.07-7.942-4.21-15.12-12.018-17.845c-2.723-0.969-5.621-1.304-8.516-1.275c-2.172,0.021-7.876,0.071-13.268,3.55
		c-5.581,3.571-7.434,8.645-7.953,10.992c-0.7,2.624-0.77,4.974-0.762,5.875l16.107-0.061
		C285.638,75.725,285.333,72.479,288.034,70.83z"/>
	<path i:knockout="Off" fill="none" d="M155.781,475.224c0.231,0.104,0.461,0.211,0.693,0.315
		c-1.195-23.784-1.731-65.826-0.883-89.617c-1.624,2.229-3.254,4.733-4.048,6.76c-1.726,4.401-2.122,5.609-2.125,5.621l-0.483,1.485
		l-1.431-0.636c-0.039-0.016-2.284-1.01-5.129-2.169l-0.021,0.053c0.433,1.076,1.708,1.694,1.624,3.042
		c-2.452,1.205-4.134-1.926-5.896-3.382c-2.439-2.018-5.425-4.484-8.056-5.661c-0.821-0.15-1.637-0.279-2.439-0.383
		c-0.789,0.064-1.625,0.195-2.441,0.143c-1.329-0.078-2.479-0.449-3.525-0.605c-0.497-0.014-0.965-0.02-1.414-0.021
		c-0.17,0.027-0.337,0.062-0.504,0.121c-0.13-0.014-0.259-0.027-0.387-0.028c-0.835-0.048-1.676,0.099-2.497-0.003
		c-0.013-0.006-0.025-0.007-0.037-0.012c-0.551,0.029-0.874,0.057-0.891,0.059l-1.437,0.131l-0.035-0.527
		c-0.053-0.274-0.104-0.549-0.157-0.823c-0.154-0.794-0.306-1.591-0.402-2.417c0.056-1.754-0.031-4.082-0.22-6.811
		c-2.126-24.006-5.502-39.416-8.178-48.553c-0.777,3.469-1.494,7.871-1.494,14.229c0,17.631-0.055,29.337,0.469,36.133
		c1.789,23.221,1.84,44.857,1.083,62.787c-0.253,5.982-0.599,11.521-0.998,16.594c16.354,11.98,34.186,22.059,53.175,29.912
		c-0.454-2.873-0.868-8.331-1.223-15.413C156.242,475.441,156.014,475.328,155.781,475.224z"/>
	<path i:knockout="Off" fill="none" d="M199.852,35.479c7.757,2.589,12.24,1.168,14.926-1.777c0.738-0.831,1.711-1.886,2.545-4.373
		c0.328-1.075,0.511-2.12,0.544-3.117c-0.035,0.994-0.217,2.036-0.544,3.108c-0.834,2.487-1.807,3.542-2.545,4.373
		c-2.686,2.945-7.169,4.366-14.926,1.777c-2.494-0.833-4.943-1.801-7.341-2.911l-8.533,25.423l0.002,0.001l8.531-25.415
		C194.908,33.679,197.357,34.646,199.852,35.479z"/>
	<path i:knockout="Off" fill="none" d="M242.174,19.173c0.001,0,0.001,0,0.002,0c-1.414-5.889-4.668-11.29-9.949-15.451
		c-1.093-0.872-2.248-1.653-3.44-2.374c-0.004,0-0.008,0.001-0.012,0.001c1.197,0.723,2.355,1.507,3.453,2.382
		C237.506,7.89,240.759,13.288,242.174,19.173z"/>
	<path i:knockout="Off" fill="none" d="M46.085,316.621c0.225-6.348,0.635-11.635,1.16-16.021c-0.825,4.702-1.6,9.543-2.58,14.807
		c-0.592,3.152-1.799,6.794-2.916,11.035c-0.795,3.027-3.696,8.768-2.19,11.157c-0.024,0.046-0.026,0.098,0.022,0.132
		c0.041,0.032,0.086,0.057,0.129,0.09c0.328,0.399,0.814,0.676,1.492,0.795c1.536,0.646,3.231,0.947,4.881,1.381
		c0.692,0.5,1.429,1.006,2.186,1.512C47.349,334.725,45.694,327.635,46.085,316.621z"/>
	<path i:knockout="Off" fill="none" d="M175.574,16.926c0.307-0.913,1.011-2.765,2.149-4.957c-0.002,0.001-0.003,0.001-0.005,0.002
		c-1.138,2.192-1.842,4.045-2.147,4.954L175.574,16.926z"/>
	<path i:knockout="Off" fill="none" d="M216.785,21.74c0,0,0,0.001,0.001,0.001c0.164-0.024,0.327-0.055,0.491-0.082
		C217.112,21.685,216.948,21.714,216.785,21.74z"/>
	<path i:knockout="Off" fill="none" d="M393.962,144.267c8.821,0.529,15.031-5.361,15.539-13.727
		c0.39-8.804-5.08-15.11-13.76-15.633c-8.532-0.516-14.865,5.08-15.399,13.876C379.837,137.15,385.429,143.753,393.962,144.267z"/>
	<path i:knockout="Off" fill="none" d="M242.179,19.193c0.521,2.171,0.791,4.41,0.818,6.677c-0.027-2.27-0.297-4.511-0.818-6.686
		c-0.327,0.015-0.652,0.037-0.979,0.054c-0.944,0.051-1.887,0.104-2.829,0.163C239.638,19.322,240.907,19.253,242.179,19.193z"/>
	<path i:knockout="Off" fill="none" d="M92.327,201.629c-0.027-0.275-0.071-0.536-0.455-0.452
		c-4.975,11.428-19.379,13.458-35.286,13.98c-3.464,20.919,6.219,39.718,26.69,34.735c17.565-4.271,20.66-34.973,9.502-47.811
		C92.751,201.807,92.708,201.544,92.327,201.629z"/>
	<path i:knockout="Off" fill="none" d="M472.974,122.303c-4.127,4.788-9.389,8.994-14.938,12.552
		c-3.9,2.503-7.924,4.697-11.747,6.575c-6.064,5.405-13.526,9.775-20.271,13.06c0.264,4.127,0.978,8.875,1.902,13.699
		c2.873,14.973,7.806,30.658,7.806,30.658c-5.598-4.094-17.454-16.065-27.175-26.21c-2.309-2.408-4.488-4.705-6.443-6.777
		c-5.047-5.35-8.549-9.153-8.549-9.153c-51.164,5.146-48.623-48.799-48.623-48.799c-0.407-23.163,2.641-39.662,7.207-51.526
		c1.776-4.615,3.783-8.526,5.905-11.856c0.423-0.663,0.85-1.308,1.281-1.926c3.425-5.982,4.796-8.437,13.584-13.724
		c0.028-0.017,0.057-0.032,0.084-0.048C338.035,10.577,298.32,0.189,256.191,0.016c2.774,5.324,5.279,11.7,7.257,19.433
		c1.646,6.43,2.934,13.771,3.727,22.175c7.946-4.846,18.245-7.465,31.184-4.066c7.846,2.065,9.43,3.621,13.359,7.396
		c7.98,6.404,16.588,18.02,23.434,39.463c0.695,2.186,1.376,4.471,2.035,6.866c0,0,7.903,22.867-5.239,37.34
		c-4.312,4.748-10.886,8.596-20.753,10.431c0,0-3.629,7.354-8.116,15.981c-5.056,9.721-11.198,21.057-14.464,25.316
		c0,0,0.27-14.301-1.096-26.743c-0.532-4.85-1.312-9.417-2.455-12.744c0,0-26.642-0.139-42.244-10.548
		c-3.918-2.613-7.145-5.874-9.072-9.946c-5.828,1.404-12.638,1.878-20.608,1.075c0,0-10.493,11.4-21.983,23.229
		c-5.776,5.947-11.804,12-16.875,16.769c-3.506,3.294-6.552,5.973-8.747,7.577c0,0,3.85-12.249,7.014-26.096
		c1.184-5.183,2.272-10.587,3.024-15.659c0.764-5.14,1.184-9.939,1.012-13.812c0,0-37.383-11.134-54.31-32.148
		c-4.104-5.096-6.994-10.776-7.869-17.015c-1.541,1.116-3.069,2.252-4.585,3.404c1.516-1.153,3.043-2.289,4.585-3.406
		c-0.888-6.344,0.307-13.267,4.476-20.755c0.687-1.234,1.398-2.479,2.119-3.726c0.249-0.43,0.496-0.856,0.748-1.288
		c0.279-0.478,0.567-0.958,0.85-1.437C49.089,81.857,0.002,162.755,0.002,255.12c0,51.359,15.19,99.164,41.303,139.194
		c0.053-2.362,0.105-4.726,0.186-7.09c0.176-5.238,1.136-8.545,3.047-15.66c0.833-3.106,1.847-6.936,3.06-11.977
		c1.228-5.111,1.413-9.309,1.136-13.34c-2.535-1.369-4.405-2.967-6.592-3.264c-0.18-0.086-0.362-0.182-0.542-0.26
		c-1.191-0.551-2.474-0.896-3.621-1.504c-1.092-0.867-2.259-0.911-3.395-1.342c0.203-1.442,0.298-2.893,0.608-4.332
		c5.796-13.272,7.436-26.613,9.749-39.933c-1.591-1.58-2.941-2.774-3.912-3.32c8.855-16.169-3.862-62.347-1.629-81.308
		c2.773-23.535,24.728-45.237,49.307-35.638c14.062,5.496,24.176,19.796,25.334,38.345c0.757,12.158-4.32,35.998-5.394,55.023
		c-0.534,9.455-0.085,17.727,2.571,22.771c-1.326,0.287-2.497,0.712-3.551,1.24c0.273,6.884,0.263,15.611-0.177,26.699
		c1.251,6.861,2.614,14.834,4.098,24.096c0.059,0.633,0.126,1.256,0.19,1.883c2.027,10.243,3.993,23.912,5.279,41.822
		c0.031,0.012,0.06,0.02,0.089,0.029c0.084,0.062,0.179,0.107,0.276,0.141c0.424-0.016,0.913-0.033,1.46-0.039
		c0.844-0.086,1.698-0.311,2.549-0.465c0.595,0.191,1.224,0.371,1.868,0.542c2.312,0.119,4.956,0.386,7.657,0.911
		c0.295-0.014,0.589-0.023,0.885-0.051c2.711-0.256,5.09-1.95,7.33-0.498c1.847,1.209,2.475,3.645,3.143,6.127
		c1.979,0.791,3.775,1.55,4.945,2.053c0.33-0.887,0.853-2.26,1.661-4.321c1.346-3.437,4.659-7.876,6.881-10.64
		c0.381-7.564,0.949-12.408,1.741-12.771c4.011-1.838,24.452,5.83,27.079,9.455c0.042,0.061,0.084,0.123,0.117,0.184
		c0.131,0.226,0.271,0.893,0.416,1.932c1.894,13.522,4.754,90.946,3.674,107.49c0.87,0.248,1.74,0.494,2.613,0.732
		c-0.873-0.238-1.744-0.483-2.615-0.727c-0.121,1.871-0.294,2.976-0.523,3.105c-6.387,3.609-13.26,4.956-18.873,5.055
		c20.468,7.298,42.139,12.058,64.64,13.896c-0.391-4.124-0.748-9.135-1.068-14.994c-0.213-0.019-0.424-0.041-0.638-0.058
		c0.212,0.017,0.425,0.031,0.637,0.051c-0.962-17.603-1.589-42.648-1.775-73c-0.031-5.047,3.049-22.908,5.354-39.615
		c1.485-10.777-5.351-34.107-5.315-39.363c0.257-37.729,1.226-44.943,3.929-46.179c7.268-3.333,44.289,10.565,49.043,17.127
		c0.08,0.114,0.158,0.226,0.217,0.335c0.237,0.412,0.497,1.613,0.756,3.502c0.998,7.131,2.146,24.08,3.223,45.26
		c-3.503-0.738-6.724,1.497-10.652,2.33c-5.807,1.225-11.643,1.094-16.447,0.643c-1.639,0.458-3.258,1.058-4.91,1.28
		c-0.644,0.237-1.202,0.247-1.69,0.069c-0.053-0.01-0.103-0.008-0.155-0.018c-0.057,0-0.082-0.052-0.088-0.098
		c-2.508-1.295-2.936-7.711-3.785-10.723c-1.198-4.223-2.015-7.969-3.109-10.984c-3.626-9.964-7.119-18.094-9.837-27.28
		c-0.078,1.313-0.49,3.735-1.177,7.093c5.013,13.611,11.047,26.65,12.932,42.046c0.466,1.394,1.12,2.698,1.68,4.042
		c1.195-0.203,2.225-0.758,3.606-0.561c1.3-0.06,2.581-0.41,3.886-0.535c0.195-0.025,0.401-0.039,0.604-0.057
		c2.314-0.967,5.134-0.277,8.564-0.596c2.402-0.219,4.792-1.215,6.824-0.93c1.408,0.199,2.925,0.584,4.473,1.061
		c2.009-1.045,4.147-1.631,6.369-1.676c0.672-1.213,2.365-0.766,2.926,0.259c0.092,0.017,0.184,0.035,0.275,0.056
		c-0.085-1.719-0.168-3.408-0.252-5.076c0.205,0.043,0.408,0.094,0.615,0.16c3.863,1.229,5.15,5.061,7.206,8.348l-0.234,0.75
		c6.614,5.771,11.099,16.947,11.099,29.794c0,15.741-6.736,28.979-15.878,32.827c0.635,21.713,1.028,42.227,1.018,57.414
		c-0.005,6.128-0.074,11.371-0.222,15.492c63.457-9.208,119.34-41.768,158.661-88.688c-0.218-7.944-0.711-17.082-0.794-25.313
		c-0.402-38.947-0.097-79.926,1.017-91.4c0.144-1.545,0.214-2.346,0.691-3.299c3.477-5.258,29.593-16.67,38.944-16.678
		c0.897,0,1.652,0.1,2.205,0.324c2.122,0.866,4.096,21.782,5.627,49.538c7.669-24.276,11.815-50.116,11.815-76.928
		C510.238,206.463,496.611,160.992,472.974,122.303z"/>
	<path i:knockout="Off" fill="#B5B5B5" d="M188.827,487.312c0.871,0.243,1.742,0.488,2.615,0.727
		c-0.873-0.238-1.743-0.484-2.613-0.732c1.08-16.544-1.78-93.968-3.674-107.49c-0.145-1.039-0.285-1.706-0.416-1.932
		c-0.033-0.061-0.075-0.123-0.117-0.184c-2.627-3.625-23.068-11.293-27.079-9.455c-0.792,0.363-1.36,5.207-1.741,12.771
		c-2.222,2.764-5.535,7.203-6.881,10.64c-0.809,2.062-1.331,3.435-1.661,4.321c-1.17-0.503-2.967-1.262-4.945-2.053
		c-0.668-2.482-1.296-4.918-3.143-6.127c-2.24-1.452-4.619,0.242-7.33,0.498c-0.296,0.027-0.59,0.037-0.885,0.051
		c-2.701-0.525-5.345-0.792-7.657-0.911c-0.645-0.171-1.273-0.351-1.868-0.542c-0.851,0.154-1.705,0.379-2.549,0.465
		c-0.547,0.006-1.036,0.023-1.46,0.039c-0.098-0.033-0.192-0.078-0.276-0.141c-0.029-0.01-0.058-0.018-0.089-0.029
		c-1.286-17.91-3.252-31.579-5.279-41.822c-0.064-0.627-0.132-1.25-0.19-1.883c-1.483-9.262-2.847-17.234-4.098-24.096
		c0.439-11.088,0.45-19.815,0.177-26.699c1.054-0.528,2.225-0.953,3.551-1.24c-2.656-5.045-3.105-13.316-2.571-22.771
		c1.073-19.025,6.15-42.865,5.394-55.023c-1.158-18.549-11.271-32.849-25.334-38.345c-24.579-9.6-46.533,12.103-49.307,35.638
		c-2.233,18.961,10.484,65.139,1.629,81.308c0.971,0.546,2.321,1.74,3.912,3.32c-2.313,13.319-3.953,26.66-9.749,39.933
		c-0.311,1.439-0.405,2.89-0.608,4.332c1.136,0.431,2.303,0.475,3.395,1.342c1.147,0.608,2.43,0.953,3.621,1.504
		c0.18,0.078,0.362,0.174,0.542,0.26c2.187,0.297,4.057,1.895,6.592,3.264c0.277,4.031,0.092,8.229-1.136,13.34
		c-1.213,5.041-2.227,8.87-3.06,11.977c-1.911,7.115-2.871,10.422-3.047,15.66c-0.08,2.364-0.132,4.728-0.186,7.09
		c16.884,25.882,38.337,48.505,63.219,66.732c0.399-5.073,0.745-10.611,0.998-16.594c0.757-17.93,0.706-39.566-1.083-62.787
		c-0.523-6.796-0.469-18.502-0.469-36.133c0-6.357,0.717-10.76,1.494-14.229c2.676,9.137,6.052,24.547,8.178,48.553
		c0.188,2.729,0.275,5.057,0.22,6.811c0.097,0.826,0.248,1.623,0.402,2.417c0.054,0.274,0.104,0.549,0.157,0.823l0.035,0.527
		l1.437-0.131c0.017-0.002,0.34-0.029,0.891-0.059c0.012,0.005,0.024,0.006,0.037,0.012c0.821,0.102,1.662-0.045,2.497,0.003
		c0.128,0.001,0.257,0.015,0.387,0.028c0.167-0.059,0.334-0.094,0.504-0.121c0.449,0.002,0.917,0.008,1.414,0.021
		c1.046,0.156,2.196,0.527,3.525,0.605c0.816,0.053,1.652-0.078,2.441-0.143c0.803,0.104,1.618,0.232,2.439,0.383
		c2.631,1.177,5.616,3.644,8.056,5.661c1.762,1.456,3.443,4.587,5.896,3.382c0.084-1.348-1.191-1.966-1.624-3.042l0.021-0.053
		c2.845,1.159,5.09,2.153,5.129,2.169l1.431,0.636l0.483-1.485c0.003-0.012,0.399-1.22,2.125-5.621
		c0.794-2.026,2.424-4.531,4.048-6.76c-0.849,23.791-0.312,65.833,0.883,89.617c-0.232-0.104-0.462-0.211-0.693-0.315
		c0.232,0.104,0.461,0.218,0.694,0.322c0.355,7.082,0.77,12.54,1.223,15.413c3.864,1.598,7.775,3.103,11.732,4.514
		c5.613-0.099,12.486-1.445,18.873-5.055C188.533,490.288,188.706,489.184,188.827,487.312z M46.083,339.996
		c-1.649-0.434-3.345-0.734-4.881-1.381c-0.678-0.119-1.164-0.396-1.492-0.795c-0.043-0.033-0.088-0.058-0.129-0.09
		c-0.049-0.034-0.047-0.086-0.022-0.132c-1.506-2.39,1.396-8.13,2.19-11.157c1.117-4.241,2.324-7.883,2.916-11.035
		c0.98-5.264,1.755-10.104,2.58-14.807c-0.525,4.387-0.936,9.674-1.16,16.021c-0.391,11.014,1.264,18.104,2.184,24.887
		C47.512,341.002,46.775,340.496,46.083,339.996z M83.276,249.893c-20.472,4.982-30.154-13.816-26.69-34.735
		c15.907-0.522,30.312-2.553,35.286-13.98c0.384-0.084,0.428,0.177,0.455,0.452c0.381-0.085,0.424,0.178,0.451,0.453
		C103.937,214.92,100.842,245.621,83.276,249.893z"/>
	<path i:knockout="Off" fill="#FFFFFF" d="M359.33,42.6c-0.432,0.618-0.858,1.263-1.281,1.926c-2.122,3.33-4.129,7.241-5.905,11.856
		c-4.566,11.864-7.614,28.363-7.207,51.526c0,0-2.541,53.944,48.623,48.799c0,0,3.502,3.804,8.549,9.153
		c1.955,2.072,4.135,4.369,6.443,6.777c9.721,10.145,21.577,22.116,27.175,26.21c0,0-4.933-15.686-7.806-30.658
		c-0.925-4.824-1.639-9.572-1.902-13.699c6.744-3.284,14.206-7.654,20.271-13.06c3.823-1.878,7.847-4.072,11.747-6.575
		c5.549-3.559,10.811-7.764,14.938-12.552c-15.996-26.182-36.576-49.256-60.63-68.105l-2.78,23.575l-3.827,32.465l-19.063-1.146
		l0.075-48.546l0.023-14.229l16.358,0.988c-9.571-6.829-19.641-13.003-30.132-18.479c-0.027,0.017-0.056,0.031-0.084,0.048
		C364.126,34.163,362.755,36.617,359.33,42.6z M380.342,128.783c0.534-8.796,6.867-14.392,15.399-13.876
		c8.68,0.522,14.149,6.829,13.76,15.633c-0.508,8.365-6.718,14.256-15.539,13.727C385.429,143.753,379.837,137.15,380.342,128.783z"
		/>
	<path i:knockout="Off" fill="#B5B5B5" d="M291.275,434.658c9.142-3.848,15.878-17.086,15.878-32.827
		c0-12.847-4.484-24.023-11.099-29.794l0.234-0.75c-2.056-3.287-3.343-7.119-7.206-8.348c-0.207-0.066-0.41-0.117-0.615-0.16
		c0.084,1.668,0.167,3.357,0.252,5.076c-0.092-0.021-0.184-0.039-0.275-0.056c-0.561-1.024-2.254-1.472-2.926-0.259
		c-2.222,0.045-4.36,0.631-6.369,1.676c-1.548-0.477-3.064-0.861-4.473-1.061c-2.032-0.285-4.422,0.711-6.824,0.93
		c-3.431,0.318-6.25-0.371-8.564,0.596c-0.202,0.018-0.408,0.031-0.604,0.057c-1.305,0.125-2.586,0.476-3.886,0.535
		c-1.382-0.197-2.411,0.357-3.606,0.561c-0.56-1.344-1.214-2.648-1.68-4.042c-1.885-15.396-7.919-28.435-12.932-42.046
		c0.687-3.357,1.099-5.779,1.177-7.093c2.718,9.187,6.211,17.316,9.837,27.28c1.095,3.016,1.911,6.762,3.109,10.984
		c0.85,3.012,1.277,9.428,3.785,10.723c0.006,0.046,0.031,0.098,0.088,0.098c0.053,0.01,0.103,0.008,0.155,0.018
		c0.488,0.178,1.047,0.168,1.69-0.069c1.652-0.223,3.271-0.822,4.91-1.28c4.805,0.451,10.641,0.582,16.447-0.643
		c3.929-0.833,7.149-3.068,10.652-2.33c-1.076-21.18-2.225-38.129-3.223-45.26c-0.259-1.889-0.519-3.09-0.756-3.502
		c-0.059-0.109-0.137-0.221-0.217-0.335c-4.754-6.562-41.775-20.46-49.043-17.127c-2.703,1.235-3.672,8.449-3.929,46.179
		c-0.035,5.256,6.801,28.586,5.315,39.363c-2.306,16.707-5.386,34.568-5.354,39.615c0.187,30.352,0.813,55.397,1.775,73
		c-0.212-0.02-0.425-0.034-0.637-0.051c0.214,0.017,0.425,0.039,0.638,0.058c0.32,5.859,0.677,10.87,1.068,14.994
		c6.943,0.567,13.96,0.87,21.049,0.87c12.551,0,24.886-0.923,36.951-2.674c0.147-4.121,0.217-9.364,0.222-15.492
		C292.304,476.885,291.91,456.371,291.275,434.658z"/>
	<path i:knockout="Off" fill="#FFFFFF" d="M120.999,39.808c-0.721,1.247-1.433,2.491-2.119,3.726
		c-4.169,7.488-5.363,14.411-4.476,20.755c-1.542,1.117-3.069,2.253-4.585,3.406c1.516-1.152,3.044-2.288,4.585-3.404
		c0.875,6.238,3.765,11.919,7.869,17.015c16.927,21.015,54.31,32.148,54.31,32.148c0.172,3.872-0.248,8.672-1.012,13.812
		c-0.752,5.072-1.841,10.477-3.024,15.659c-3.164,13.847-7.014,26.096-7.014,26.096c2.195-1.604,5.241-4.283,8.747-7.577
		c5.071-4.769,11.099-10.821,16.875-16.769c11.49-11.829,21.983-23.229,21.983-23.229c7.971,0.803,14.78,0.329,20.608-1.075
		c1.928,4.072,5.154,7.333,9.072,9.946c15.603,10.409,42.244,10.548,42.244,10.548c1.143,3.327,1.923,7.895,2.455,12.744
		c1.365,12.442,1.096,26.743,1.096,26.743c3.266-4.26,9.408-15.596,14.464-25.316c4.487-8.628,8.116-15.981,8.116-15.981
		c9.867-1.835,16.44-5.683,20.753-10.431c13.143-14.473,5.239-37.34,5.239-37.34c-0.659-2.396-1.34-4.681-2.035-6.866
		c-6.846-21.443-15.453-33.059-23.434-39.463c-3.93-3.775-5.514-5.331-13.359-7.396c-12.938-3.398-23.237-0.779-31.184,4.066
		c-0.793-8.404-2.08-15.745-3.727-22.175c-1.978-7.732-4.482-14.108-7.257-19.433c-0.358-0.001-0.713-0.014-1.071-0.014
		c-8.892,0-17.676,0.458-26.333,1.346c1.192,0.721,2.347,1.502,3.44,2.374c5.281,4.161,8.535,9.562,9.949,15.451
		c-0.001,0-0.001,0-0.002,0c0,0.003,0.002,0.006,0.002,0.009c-0.327,0.016-0.651,0.039-0.977,0.057
		c0.327-0.017,0.652-0.039,0.979-0.054c0.521,2.174,0.791,4.416,0.818,6.686c0.046,3.781-0.582,7.643-1.846,11.411
		c-1.114,3.314-6.303,16.942-19.52,20.062c-4.715,1.194-8.5,0.542-10.256,0.267l-2.876,8.564l-24.522-8.183l0.002-0.008
		l-0.002-0.001l8.533-25.423c2.397,1.11,4.847,2.078,7.341,2.911c7.757,2.589,12.24,1.168,14.926-1.777
		c0.738-0.831,1.711-1.886,2.545-4.373c0.327-1.072,0.51-2.114,0.544-3.108c0.056-1.654-0.299-3.174-1.085-4.47
		c0.001,0,0.003,0,0.004-0.001c0,0-0.001-0.001-0.001-0.001c-0.001,0-0.003,0-0.004,0c-0.954-1.57-2.539-2.813-4.805-3.57
		c-1.661-0.552-3.324-0.645-5.128-0.322c-4.575,1.003-6.006,5.374-6.534,7.055c-0.257,0.06-0.514,0.12-0.77,0.18l-23.973-8.148
		c0.001-0.002,0.002-0.006,0.003-0.008l-0.003-0.001c0.305-0.909,1.009-2.762,2.147-4.954c-19.493,6.2-37.974,14.667-55.122,25.112
		c-0.283,0.479-0.571,0.959-0.85,1.437C121.495,38.951,121.248,39.378,120.999,39.808z M291.14,122.593
		c-1.268,0.014-4.348-0.322-6.994-2.823c-0.822-0.894-2.926-3.402-2.959-6.918c-0.052-5.415,4.431-9.879,9.861-9.928
		c5.426-0.05,9.812,4.33,9.861,9.744C300.962,118.172,296.567,122.545,291.14,122.593z M270.298,70.722
		c0.52-2.348,2.372-7.421,7.953-10.992c5.392-3.479,11.096-3.528,13.268-3.55c2.895-0.028,5.793,0.307,8.516,1.275
		c7.808,2.725,11.947,9.902,12.018,17.845c0.021,2.165-0.256,11.188-7.362,15.676c-2.517,1.65-4.866,2.031-5.951,2.224l0.052,5.594
		l-16.016,0.146l-0.153-16.6c1.63,0.165,3.26,0.242,4.889,0.223c5.065-0.044,7.402-1.777,8.38-4.045
		c0.264-0.634,0.617-1.448,0.604-3.071c-0.121-3.251-1.955-5.488-5.391-5.459c-1.086,0.012-2.078,0.291-3.068,0.843
		c-2.701,1.648-2.396,4.895-2.391,5.706l-16.107,0.061C269.528,75.695,269.598,73.346,270.298,70.722z M174.206,78.38
		c2.784-8.289,11.982-12.751,20.293-9.975c8.312,2.771,12.693,11.761,9.912,20.053c-2.83,8.427-11.844,12.794-20.157,10.018
		c-1.939-0.646-6.464-2.769-9.185-7.979C174.287,88.699,172.399,83.766,174.206,78.38z"/>
	<path i:knockout="Off" fill="#B5B5B5" d="M492.796,282.51c-0.553-0.225-1.308-0.324-2.205-0.324
		c-9.352,0.008-35.468,11.42-38.944,16.678c-0.478,0.953-0.548,1.754-0.691,3.299c-1.113,11.475-1.419,52.453-1.017,91.4
		c0.083,8.231,0.576,17.369,0.794,25.313c21.164-25.254,37.529-54.66,47.69-86.828C496.892,304.292,494.918,283.376,492.796,282.51z
		"/>
	<path i:knockout="Off" d="M386.771,46.318l-0.023,14.229l-0.075,48.546l19.063,1.146l3.827-32.465l2.78-23.575
		c-3.018-2.364-6.09-4.662-9.214-6.892L386.771,46.318z"/>
	<path i:knockout="Off" d="M217.323,21.651c-0.016,0.002-0.031,0.005-0.047,0.008c0.012-0.002,0.024-0.004,0.036-0.006
		C217.315,21.653,217.319,21.653,217.323,21.651z"/>
	<path i:knockout="Off" d="M199.544,25.073c0.256-0.06,0.513-0.12,0.77-0.18c0.528-1.681,1.959-6.052,6.534-7.055
		c1.804-0.322,3.467-0.229,5.128,0.322c2.266,0.757,3.851,2,4.805,3.57c0.165-0.025,0.331-0.055,0.496-0.081
		c0.016-0.002,0.031-0.005,0.047-0.008c-0.004,0.002-0.008,0.002-0.011,0.002c-0.012,0.002-0.024,0.004-0.036,0.006
		c-0.166,0.027-0.33,0.058-0.495,0.083c0.001,0.002,0.002,0.004,0.003,0.006c0.163-0.025,0.328-0.055,0.492-0.081
		c0.016-0.002,0.031-0.005,0.047-0.008c-0.004,0.002-0.008,0.002-0.011,0.002c-0.012,0.002-0.024,0.004-0.036,0.006
		c-0.164,0.027-0.327,0.058-0.491,0.082c0.785,1.297,1.139,2.817,1.081,4.471c-0.034,0.997-0.216,2.042-0.544,3.117
		c-0.834,2.487-1.807,3.542-2.545,4.373c-2.686,2.945-7.169,4.366-14.926,1.777c-2.494-0.833-4.943-1.801-7.341-2.911l-8.531,25.415
		l24.52,8.182l2.876-8.564c1.756,0.275,5.541,0.928,10.256-0.267c13.217-3.119,18.405-16.747,19.52-20.062
		c1.263-3.765,1.891-7.624,1.846-11.402c-0.028-2.267-0.298-4.505-0.818-6.677c-1.271,0.06-2.541,0.129-3.808,0.208
		c0.941-0.059,1.885-0.112,2.829-0.163c-0.944,0.048-1.888,0.096-2.829,0.154c1.266-0.079,2.532-0.159,3.803-0.22
		c-1.415-5.885-4.668-11.283-9.947-15.442c-1.097-0.875-2.256-1.659-3.453-2.382c-17.611,1.807-34.687,5.416-51.051,10.62
		c-1.138,2.192-1.842,4.044-2.149,4.957L199.544,25.073z"/>
	<path i:knockout="Off" d="M217.276,21.65c-0.166,0.026-0.331,0.056-0.496,0.081c-0.954-1.57-2.539-2.813-4.805-3.57
		c-1.661-0.552-3.324-0.645-5.128-0.322c-4.575,1.003-6.006,5.374-6.534,7.055c-0.257,0.06-0.514,0.12-0.77,0.18l-23.97-8.147
		c-0.001,0.002-0.002,0.005-0.003,0.008l23.973,8.148c0.256-0.06,0.513-0.12,0.77-0.18c0.528-1.681,1.959-6.052,6.534-7.055
		c1.804-0.322,3.467-0.229,5.128,0.322c2.266,0.757,3.851,2,4.805,3.57c0.001,0,0.003,0,0.004,0
		c-0.001-0.002-0.002-0.004-0.003-0.006C216.946,21.708,217.111,21.678,217.276,21.65z"/>
	<path i:knockout="Off" d="M217.323,21.643c-0.016,0.002-0.031,0.005-0.047,0.008c0.012-0.002,0.024-0.004,0.036-0.006
		C217.315,21.645,217.319,21.645,217.323,21.643z"/>
	<path i:knockout="Off" d="M241.2,19.238c0.326-0.018,0.65-0.041,0.977-0.057c0-0.003-0.002-0.006-0.002-0.009
		c-1.271,0.061-2.538,0.141-3.803,0.22C239.312,19.334,240.256,19.286,241.2,19.238z"/>
	<path i:knockout="Off" d="M221.632,57.334c-4.715,1.194-8.5,0.542-10.256,0.267l-2.876,8.564l-24.52-8.182l-0.002,0.008
		l24.522,8.183l2.876-8.564c1.756,0.275,5.541,0.928,10.256-0.267c13.217-3.119,18.405-16.747,19.52-20.062
		c1.264-3.768,1.892-7.63,1.846-11.411c0.045,3.778-0.583,7.637-1.846,11.402C240.037,40.587,234.849,54.215,221.632,57.334z"/>
	<path i:knockout="Off" d="M216.786,21.741c-0.001,0-0.003,0.001-0.004,0.001c0.787,1.296,1.142,2.816,1.085,4.47
		C217.924,24.558,217.57,23.038,216.786,21.741z"/>
</g>
</svg>
