<?xml version="1.0" encoding="utf-8"?>
<!-- Generator: Adobe Illustrator 15.0.0, SVG Export Plug-In . SVG Version: 6.00 Build 0)  -->
<!DOCTYPE svg PUBLIC "-//W3C//DTD SVG 1.1//EN" "http://www.w3.org/Graphics/SVG/1.1/DTD/svg11.dtd" [
	<!ENTITY ns_flows "http://ns.adobe.com/Flows/1.0/">
	<!ENTITY ns_extend "http://ns.adobe.com/Extensibility/1.0/">
	<!ENTITY ns_ai "http://ns.adobe.com/AdobeIllustrator/10.0/">
	<!ENTITY ns_graphs "http://ns.adobe.com/Graphs/1.0/">
	<!ENTITY ns_vars "http://ns.adobe.com/Variables/1.0/">
	<!ENTITY ns_imrep "http://ns.adobe.com/ImageReplacement/1.0/">
	<!ENTITY ns_sfw "http://ns.adobe.com/SaveForWeb/1.0/">
	<!ENTITY ns_custom "http://ns.adobe.com/GenericCustomNamespace/1.0/">
	<!ENTITY ns_adobe_xpath "http://ns.adobe.com/XPath/1.0/">
]>
<svg version="1.1"
	 xmlns:x="&ns_extend;" xmlns:i="&ns_ai;" xmlns:graph="&ns_graphs;" i:viewOrigin="0 0" i:rulerOrigin="0 510.2402" i:pageBounds="0 0 510.2402 -510.2402"
	 xmlns="http://www.w3.org/2000/svg" xmlns:xlink="http://www.w3.org/1999/xlink" xmlns:a="http://ns.adobe.com/AdobeSVGViewerExtensions/3.0/"
	 x="0px" y="0px" width="510.24px" height="510.24px" viewBox="0 0 510.24 510.24" enable-background="new 0 0 510.24 510.24"
	 xml:space="preserve">
<metadata>
	<variableSets  xmlns="&ns_vars;">
		<variableSet  locked="none" varSetName="binding1">
			<variables></variables>
			<v:sampleDataSets  xmlns:v="&ns_vars;" xmlns="&ns_custom;"></v:sampleDataSets>
		</variableSet>
	</variableSets>
</metadata>
<g id="Ebene_1" i:layer="yes" i:dimmedPercent="50" i:rgbTrio="#4F008000FFFF">
	<g>
		<path i:knockout="Off" fill="#005A5D" d="M508.621,255.519c0,140.067-113.55,253.616-253.62,253.616
			c-140.069,0-253.62-113.549-253.62-253.616c0-140.074,113.551-253.623,253.62-253.623
			C395.071,1.896,508.621,115.445,508.621,255.519z"/>
		<path i:knockout="Off" d="M166.572,49.52l43.64-16.646l25.195,30.594l7.199,31.943l29.693-29.244l6.749-8.547
			c0,0,20.695-5.849,46.34,11.697l23.396,58.039l-38.692,63.435h-47.689l-20.695-58.486l-35.092,13.046l-33.293,4.949
			l-38.241-30.144l15.296-53.539L166.572,49.52z"/>
		<g>
			<path i:knockout="Off" fill="#B5B5B5" d="M169.194,370.225c-1.649-1.064-5.521-1.557-12.185-1.557
				c-7.51,0-17.238,0.627-26.646,1.236c-8.271,0.533-16.084,1.043-21.378,1.043c-5.095,0-6.023-0.492-6.18-0.637
				c-0.238-0.269-1.038-2.086-1.28-14.18c-0.14-7.054-0.08-16.605,0.18-28.385c0.445-20.068,1.328-39.914,1.336-40.113
				c0.016-0.359-0.224-0.681-0.572-0.765c-0.35-0.088-0.711,0.084-0.865,0.407l-8.364,17.734
				c-4.027-3.676-19.745-17.752-24.202-17.752c-0.176,0-0.345,0.018-0.499,0.058c-0.727,0.171-1.162,1.046-1.605,3.218
				c-1.61,7.896-2.863,32.8-2.917,57.93c-0.027,12.961,0.272,24.26,0.866,32.677c0.948,13.456,2.384,15.993,3.381,16.737
				c1.215,0.898,4.391,2.098,17.888,2.096c10.434,0,23.675-0.711,34.315-1.281c7.353-0.396,13.701-0.736,17.137-0.736
				c0.873,0,1.541,0.02,1.982,0.064c0.078,0.008,0.313,0.031,0.627,0.422c4.314,5.396,0.522,45.186-1.302,60.06
				c-0.04,0.327,0.138,0.644,0.438,0.782c0.1,0.044,0.205,0.066,0.311,0.066c0.21,0,0.417-0.087,0.565-0.252
				c1.069-1.201,26.222-29.46,29.235-35.531c1.614-3.254,3.329-15.398,3.824-27.068C173.648,387.904,173.6,373.065,169.194,370.225z
				"/>
			<path i:knockout="Off" fill="#B5B5B5" d="M113.114,249.438c0-15.565-2.876-29.967-23.753-29.967c-1.521,0-3.143,0.08-4.823,0.234
				c-7.732,0.711-14.855,3.989-20.054,9.237c-5.389,5.434-8.368,12.716-8.384,20.497c-0.022,9.91,2.499,17.47,7.49,22.472
				c4.812,4.821,11.883,7.268,21.018,7.268C100.327,279.178,113.114,265.836,113.114,249.438z"/>
		</g>
		<g>
			<path i:knockout="Off" fill="#B5B5B5" d="M439.621,287.334c-0.657-0.302-1.535-0.447-2.684-0.447
				c-4.9,0-13.433,2.658-19.783,5.15c-3.1,1.215-13.359,5.433-15.207,8.652c-1.438,2.506-1,16.559-0.167,37.715
				c0.52,13.162,1.165,29.527,0.229,31.146c-0.123,0.101-0.844,0.492-4.535,0.492c-4.035,0-9.94-0.443-16.191-0.909
				c-6.762-0.51-13.753-1.031-18.936-1.031c-6.066,0-7.563,0.745-8.188,1.4c-0.399,0.413-1.457,1.515-2.061,12.208
				c-0.335,5.911-0.475,13.899-0.396,22.507c0.115,12.594,0.837,32.229,2.356,34.713c2.434,3.974,32.235,21.547,35.626,23.537
				c0.119,0.07,0.251,0.104,0.383,0.104c0.149,0,0.299-0.045,0.428-0.131c0.24-0.166,0.363-0.457,0.315-0.744
				c-0.088-0.541-8.884-53.911-2.208-63.199c0.477-0.662,0.994-1.029,1.582-1.125c1.39-0.219,3.264-0.33,5.734-0.33
				c4.785,0,11.1,0.42,17.207,0.83c6.171,0.41,12.55,0.835,17.447,0.835c5.23,0,8.079-0.47,9.239-1.521
				c0.448-0.404,1.502-1.359,2.491-14.945c0.578-7.924,1.014-18.684,1.227-30.293c0.357-19.607,0.126-46.722-1.701-58.615
				C441.103,288.604,440.307,287.647,439.621,287.334z"/>
			<path i:knockout="Off" fill="#B5B5B5" d="M396.996,272.36c5.174,4.213,12.338,6.665,20.717,7.092
				c1.339,0.067,2.633,0.101,3.848,0.101c10.023,0,16.268-2.35,19.645-7.395c3.107-4.643,3.731-11.265,3.731-20.443
				c0-8.937-2.952-17.327-8.315-23.622c-5.305-6.229-12.462-9.868-20.153-10.256c-0.884-0.046-1.759-0.068-2.599-0.068
				c-22.805,0-25.947,16.315-25.947,33.945C387.922,260.509,390.975,267.456,396.996,272.36z"/>
		</g>
		<path i:knockout="Off" fill="#FFFFFF" d="M386.68,336.156c-0.124-0.156-0.306-0.258-0.504-0.28
			c-16.771-1.978-36.42-2.981-58.402-2.981c-91.406,0-197.245,17.32-198.303,17.497c-0.375,0.063-0.647,0.394-0.63,0.776
			l0.448,10.447c0.009,0.235,0.128,0.449,0.32,0.584c0.127,0.092,0.28,0.141,0.434,0.141c0.075,0,0.151-0.012,0.225-0.035
			c14.169-4.409,45.29-7.773,81.085-10.312c12.74,37.002,30.138,99.439,30.319,100.092c0.091,0.326,0.388,0.553,0.727,0.553h6.714
			c0.002,0,0.005,0,0.005,0c0.418,0,0.755-0.34,0.755-0.757c0-0.063-0.007-0.124-0.023-0.183
			c-3.087-24.43-24.07-83.498-30.152-100.279c31.869-2.107,66.589-3.602,95.967-4.615c-5.455,15.672-27.473,80.013-30.595,106.114
			c-0.027,0.214,0.04,0.43,0.184,0.589c0.145,0.164,0.35,0.258,0.564,0.258h6.715c0.343,0,0.643-0.231,0.73-0.562
			c0.186-0.694,18.221-68.336,31.015-106.688c34.774-1.138,60.2-1.579,60.928-1.59c0.378-0.007,0.692-0.291,0.736-0.666l0.896-7.543
			C386.859,336.516,386.804,336.312,386.68,336.156z"/>
		<g>
			<path i:knockout="Off" fill="#FFFFFF" d="M279.528,106.352c-1.246,1.816-1.614,4.191-1.058,6.872
				c0.893,4.362,3.857,7.629,7.289,11.41l1.553,1.719c3.988,4.475,8.219,8.607,12.528,8.338c2.082-0.135,3.907-1.256,5.138-3.158
				c1.652-2.561,1.964-6.054,0.812-9.113c-2.482-6.582-13.32-18.347-17.84-19.364c-0.094-0.022-0.328-0.064-0.773-0.064
				c-0.697,0-1.588,0.101-2.51,0.285C282.405,103.655,280.636,104.737,279.528,106.352z"/>
			<path i:knockout="Off" fill="#FFFFFF" d="M372.715,109.813c-15.041-16.987-34.568-35.227-55.283-45.271
				c0.35,0.974,0.631,1.994,0.8,3.095c0.726,4.775-0.282,10.77-4.173,13.399c-1.525,1.034-3.41,1.579-5.451,1.579
				c-4.299,0-9.024-2.496-9.739-7.261c-0.676-4.491,1.645-7.124,3.182-8.864c0.991-1.123,1.396-1.636,1.392-2.19
				c-0.007-1.006-2.948-2.227-6.593-2.227c-0.974,0-1.881,0.092-2.553,0.258c-3.424,0.848-6.401,5.181-5.241,10.705
				c1.293,6.126,7.729,12.009,14.54,18.236c8.708,7.963,18.577,16.983,19.545,28.96c0.55,6.843-1.4,13.053-5.493,17.487
				c-2.982,3.234-6.869,5.309-11.4,6.127c0.359,0.4,0.727,0.8,1.098,1.203c3.838,4.179,8.188,8.914,8.086,18.536
				c-0.156,14.193-12.916,21.854-24.84,21.854c-9.128,0-16.645-4.212-20.104-11.27c-2.341-4.779-2.214-10.942,0.308-14.984
				c2.371-3.803,6.593-5.292,11.38-3.895c3.938,1.142,6.567,5.842,5.982,10.693c-0.401,3.334-2.324,5.43-3.598,6.818
				c-0.277,0.304-0.632,0.688-0.834,0.958c0.59,0.693,3.569,1.907,7.822,1.907c1.193,0,2.273-0.108,2.965-0.301
				c2.356-0.645,4.193-2.201,5.172-4.381c1.205-2.679,1-6.03-0.561-9.199c-2.285-4.633-7.603-9.677-13.233-15.012
				c-8.941-8.476-18.187-17.241-19.458-27.757c-0.883-7.291,0.72-13.53,4.633-18.041c2.834-3.267,6.838-5.547,11.605-6.672
				c-4.836-5.947-8.894-13.716-8.737-21.421c0.12-5.913,2.634-11.044,7.47-15.254c0.219-0.19,0.467-0.359,0.697-0.538
				c-8.352,0.847-16.603,3.792-24.545,9.508c-9.527,6.853-35.433,25.479-18.701,95.189c0,0,9.91,57.322,62.375,40.021
				c0,0,41.422,28.963,54.051,34.531c0,0-18.783-32.661-21.741-49.505C333.538,186.835,405.449,146.774,372.715,109.813z"/>
		</g>
		<path i:knockout="Off" fill="#FFFFFF" d="M235.955,44.269c-3.452-6.043-4.833-8.523-13.687-13.866
			c-34.326-20.708-62.844,4.521-72.06,14.359c-13.165,12.92-24.316,29.697-32.846,45.063c-22.468,40.478,51.49,62.564,51.49,62.564
			c0.709,16.019-9.86,49.725-9.86,49.725c10.433-7.658,42.479-42.573,42.479-42.573c51.54,5.198,48.979-49.298,48.979-49.298
			C251.053,75.929,244.173,56.079,235.955,44.269z M193.684,130.325c-2.523,7.542-10.567,11.448-17.986,8.966
			c-1.73-0.579-5.767-2.482-8.195-7.141c-0.697-1.607-2.382-6.022-0.768-10.842c2.482-7.418,10.689-11.41,18.107-8.927
			C192.258,114.863,196.167,122.907,193.684,130.325z M226.468,84.523c-0.993,2.965-5.623,15.163-17.417,17.952
			c-4.208,1.069-7.585,0.486-9.152,0.239l-2.566,7.664l-21.881-7.323l7.613-22.747c2.142,0.992,4.326,1.86,6.551,2.604
			c6.922,2.317,10.922,1.045,13.318-1.59c0.659-0.742,1.526-1.689,2.271-3.914c1.365-4.493-0.072-8.412-4.771-9.984
			c-1.481-0.496-2.967-0.578-4.574-0.291c-4.454,0.983-5.572,5.558-5.943,6.669l-21.964-7.484c0.414-1.237,1.613-4.409,3.802-7.665
			c1.817-2.967,6.73-9.021,16.007-11.278c8.989-2.215,16.778,0.392,19.745,1.384c3.956,1.324,7.746,3.142,11,5.743
			C227.855,61.894,230.107,73.643,226.468,84.523z"/>
	</g>
</g>
</svg>
