<?xml version="1.0" encoding="utf-8"?>
<!-- Generator: Adobe Illustrator 15.0.0, SVG Export Plug-In . SVG Version: 6.00 Build 0)  -->
<!DOCTYPE svg PUBLIC "-//W3C//DTD SVG 1.1//EN" "http://www.w3.org/Graphics/SVG/1.1/DTD/svg11.dtd" [
	<!ENTITY ns_flows "http://ns.adobe.com/Flows/1.0/">
	<!ENTITY ns_extend "http://ns.adobe.com/Extensibility/1.0/">
	<!ENTITY ns_ai "http://ns.adobe.com/AdobeIllustrator/10.0/">
	<!ENTITY ns_graphs "http://ns.adobe.com/Graphs/1.0/">
	<!ENTITY ns_vars "http://ns.adobe.com/Variables/1.0/">
	<!ENTITY ns_imrep "http://ns.adobe.com/ImageReplacement/1.0/">
	<!ENTITY ns_sfw "http://ns.adobe.com/SaveForWeb/1.0/">
	<!ENTITY ns_custom "http://ns.adobe.com/GenericCustomNamespace/1.0/">
	<!ENTITY ns_adobe_xpath "http://ns.adobe.com/XPath/1.0/">
]>
<svg version="1.1"
	 xmlns:x="&ns_extend;" xmlns:i="&ns_ai;" xmlns:graph="&ns_graphs;" i:viewOrigin="0 0" i:rulerOrigin="0 510.2402" i:pageBounds="0 0 510.2402 -510.2402"
	 xmlns="http://www.w3.org/2000/svg" xmlns:xlink="http://www.w3.org/1999/xlink" xmlns:a="http://ns.adobe.com/AdobeSVGViewerExtensions/3.0/"
	 x="0px" y="0px" width="510.24px" height="510.24px" viewBox="0 0 510.24 510.24" enable-background="new 0 0 510.24 510.24"
	 xml:space="preserve">
<metadata>
	<variableSets  xmlns="&ns_vars;">
		<variableSet  locked="none" varSetName="binding1">
			<variables></variables>
			<v:sampleDataSets  xmlns:v="&ns_vars;" xmlns="&ns_custom;"></v:sampleDataSets>
		</variableSet>
	</variableSets>
</metadata>
<g id="Ebene_1" i:layer="yes" i:dimmedPercent="50" i:rgbTrio="#4F008000FFFF">
	<circle i:knockout="Off" fill="#005A5D" cx="255.12" cy="255.12" r="255.118"/>
	<path i:knockout="Off" fill="#B5B5B5" d="M250.435,253.879c-0.237-0.303-0.478-0.616-0.718-0.921
		c1.021,2.958,2.53,5.674,4.425,8.039c-0.659-1.518-1.322-3.071-1.711-4.563C251.759,255.583,251.098,254.73,250.435,253.879z"/>
	<path i:knockout="Off" fill="#B5B5B5" d="M310.648,193.885c-1.008,3.974-1.444,7.403-1.43,12.829
		c3.465-1.792,6.576-3.917,10.008-5.741C316.912,198.098,313.356,196.395,310.648,193.885z"/>
	<g>
		<path i:knockout="Off" fill="#B5B5B5" d="M293.31,283.291c-5.474-2.516-33.754,8.205-36.491,12.973
			c-0.145,0.252-0.295,0.898-0.455,1.889c-1.449,1.34-3.389,2.104-5.509,2.104c-2.617,0-5.235-1.115-7.564-3.224
			c-4.805-4.347-9.468-15.103-9.592-22.132c-0.025-1.221-0.114-11.968,3.692-13.365c0.4-0.149,0.835-0.22,1.294-0.22
			c2.457,0,5.435,2.103,8.583,4.327c2.906,2.053,5.902,4.174,8.228,4.426c1.628-2.205,0.222-5.447-1.267-8.872
			c-0.028-0.064-0.059-0.13-0.087-0.199c4.687,5.856,11.73,9.579,19.608,9.579c14.109,0,25.588-6.443,25.545-26.674
			c-0.029-14.738-11.496-25.389-25.545-26.681c-22.945-2.12-25.547,11.943-25.547,26.681c0,3.177,0.536,6.228,1.514,9.056
			c-0.672-0.859-1.348-1.726-2.039-2.584c-0.402,0.037-0.799,0.055-1.198,0.065c-1.118,0.734-2.615,1.511-4.534,1.511
			c-0.256,0-0.518-0.018-0.783-0.042c-0.888,0.242-1.847,0.428-2.917,0.582c-4.062,1.92-7.14,6.901-8.249,13.342
			c-1.571,9.119,0.727,22.712,11.878,33.518c3.31,3.201,6.765,4.896,10.001,4.896c1.365,0,2.666-0.301,3.881-0.881
			c-2.812,29.92-6.59,142.709-3.719,144.34c16.811,9.531,36.189,7.377,40.244,3.704C296.34,447.741,298.787,285.805,293.31,283.291z
			 M241.966,258.025c1.311-1.457,2.901-1.818,4.302-2.128c0.603-0.137,1.17-0.264,1.707-0.464l0.658-0.254l0.388,0.582
			c1.26,1.887,1.661,3.519,2.051,5.101c0.176,0.725,0.341,1.402,0.589,2.11l0.776,2.217l-2.044-1.159
			c-1.34-0.763-2.678-1.521-4.019-2.28c-1.395-0.788-2.79-1.576-4.185-2.368l-0.951-0.543L241.966,258.025z"/>
		<path i:knockout="Off" fill="#B5B5B5" d="M246.373,261.749c1.341,0.759,2.679,1.518,4.019,2.28l2.044,1.159l-0.776-2.217
			c-0.249-0.708-0.413-1.386-0.589-2.11c-0.39-1.582-0.791-3.214-2.051-5.101l-0.388-0.582l-0.658,0.254
			c-0.537,0.201-1.104,0.328-1.707,0.464c-1.401,0.31-2.991,0.671-4.302,2.128l-0.729,0.812l0.951,0.543
			C243.583,260.173,244.978,260.961,246.373,261.749z"/>
	</g>
	<path i:knockout="Off" fill="#B5B5B5" d="M385.166,274.789c-5.383-2.476-32.81,7.848-36.331,12.725
		c-7.812-3.226-13.627-7.961-18.527-13.618c-10.544-12.177-19.089-28.522-20.73-49.29c-0.266-3.345-1.315-10.058-0.358-13.163
		c1.176-3.817,13.199-6.235,13.583-10.13c0.435-4.439-11.569-9.328-13.583-11.814c-1.832-4.235-2.148-9.903-4.646-13.504h-0.359
		c-3.116,1.08-0.778,5.13-0.356,8.102c0.514,3.591,0.237,7.518,1.43,10.124c-1.408,5.707-0.936,15.13-0.714,21.945
		c0.606,18.638,4.685,32.437,13.583,45.913c8.111,12.292,16.521,22.524,29.958,28.284c-2.829,20.262-7.269,147.114-4.222,148.842
		c16.811,9.527,36.193,7.379,40.244,3.707C388.194,439.238,390.641,277.309,385.166,274.789z"/>
	<path i:knockout="Off" fill="#B5B5B5" d="M368.787,205.758c-15.219,0.771-27.592,14.744-27.592,32.938
		c0,18.187,2.303,28.048,26.28,26.824c15.218-0.773,28.905-8.638,28.905-26.824C396.381,220.502,393,204.537,368.787,205.758z"/>
	<path i:knockout="Off" fill="#B5B5B5" d="M468.407,250.449c-0.69-13.568-7.702-25.767-23.915-25.767
		c-16.215,0-30.453,3.014-29.36,24.6c0.685,13.567,13.146,24.598,29.36,24.598C460.705,273.88,469.491,271.824,468.407,250.449z"/>
	<path i:knockout="Off" fill="#FFFFFF" stroke="#FFFFFF" stroke-width="1.4173" stroke-miterlimit="10" d="M90.307,115.075
		c0,0.631,0.861,1.136,1.92,1.136c1.062,0,1.922-0.505,1.922-1.136c0-0.625-0.859-1.134-1.922-1.134
		C91.168,113.941,90.307,114.45,90.307,115.075z"/>
	<path i:knockout="Off" fill="#FFFFFF" d="M82.148,281.704c8.48-17.093,11.551-51.324,9.121-101.735
		c-1.228-25.488-3.626-48.861-5.042-61.273c3.312,0.108,62.224,1.965,89.572-2.484l-89.574,2.476
		c-0.662-5.794-1.11-9.206-1.125-9.31l-3.473,0.458c0.001,0.009,0.007,0.05,0.012,0.089l-0.103,0.009
		c0.001,0.055,0.021,0.375,0.05,0.925l-0.164,0.002c0.025,1.272,2.447,127.347,0.007,140.149l0.862,0.164
		c1.839-9.647,0.986-80.529,0.397-117.774c1.69,37.04,4.277,106.164,0.736,119.002l1.687,0.466
		c3.535-12.812,1.215-77.976-0.492-115.836c1.157,12.101,2.384,27.197,3.152,43.131c2.363,49.093-0.669,83.671-8.764,99.986
		L82.148,281.704z"/>
	<path i:knockout="Off" fill="#FFFFFF" stroke="#FFFFFF" stroke-width="1.4173" stroke-miterlimit="10" d="M193.286,110.5
		c0-0.845-0.4-1.532-0.892-1.532c-0.491,0-0.89,0.687-0.89,1.532c0,0.845,0.399,1.527,0.89,1.527
		C192.885,112.027,193.286,111.345,193.286,110.5z"/>
	<path i:knockout="Off" fill="#FFFFFF" stroke="#FFFFFF" stroke-width="1.4173" stroke-miterlimit="10" d="M101.74,108.363
		c30.562-5.588,60.983-2.726,94.357-4.187c-32.534-1.524-68.536-1.47-99.472,1.862c-3.921,0.422-9.023-0.486-11.62,2.791
		C90.7,111.407,97.36,106.593,101.74,108.363z"/>
	<path i:knockout="Off" fill="#FFFFFF" stroke="#FFFFFF" stroke-width="1.4173" stroke-miterlimit="10" d="M124.515,442.605
		c-0.877,2.65-2.175,6.109-2.325,8.719c2.707-0.365,3.187-2.345,3.716-3.635c2.35-5.666,4.537-12.06,5.117-17.678
		C123.537,430.909,126.22,437.44,124.515,442.605z"/>
	<path i:knockout="Off" fill="#FFFFFF" stroke="#FFFFFF" stroke-width="1.4173" stroke-miterlimit="10" d="M207.83,176.579
		c-0.182-21.758,0.869-45.022-1.383-61.69c-0.464,0-0.926,0-1.386,0c0,1.586,0,3.163,0,4.749
		c-0.449,17.417,0.131,40.393,0.346,55.359c0.55,38.371,0.331,78.474,2.194,112.879c-42.943-5.309-78.632-2.025-120.27,2.227
		c-3.928,2.582-11.409,1.61-13.948,5.578c20.27-1.391,42.329-5.559,67.4-6.042c-3.198,9.059,1.87,20.565,1.86,30.678
		c-0.04,35.023-5.958,69.28-12.084,99.937c-17.544,0.193-40.154,6.512-47.413,16.266c11.61-5.979,29.074-13.219,45.552-13.014
		c2.59,0.033,3.146,2.062,5.579,0.467c2.493-10.379,4.469-22.289,6.507-34.397c5.265-31.28,9.428-69.581,2.79-100.397
		c18.532,0.017,44.897-0.1,66.932,3.251c0-1.399,0-2.789,0-4.185c-0.836-0.11-1.665-0.211-2.497-0.314
		C209.469,253.291,208.135,213.114,207.83,176.579z"/>
	<path i:knockout="Off" fill="#FFFFFF" stroke="#FFFFFF" stroke-width="1.4173" stroke-miterlimit="10" d="M135.203,425.354
		c15.195,4.822,35.108,7.656,49.27,10.694c1.433,0.345,0.567-1.604,2.324-0.934c0.04,1.269-0.774,0.935,0,1.864
		c6.473,0.376,11.253,2.678,16.734,0.462c-20.927-6.188-43.149-11.08-65.538-15.802
		C137.106,422.803,134.256,423.832,135.203,425.354z"/>
	<path i:knockout="Off" fill="#FFFFFF" stroke="#1F1E21" stroke-width="1.4173" stroke-miterlimit="10" d="M143.536,194.213
		c-0.407,1.741-0.853,3.412-1.332,4.987c-0.114,0.371-0.229,0.821-0.353,1.295c-0.297,1.139-0.793,3.042-1.271,3.622l2.487,2.05
		c0.862-1.041,1.353-2.744,1.904-4.857c0.117-0.443,0.225-0.863,0.316-1.167c0.116-0.375,0.229-0.755,0.337-1.142
		c0.435,0.833,0.9,1.643,1.406,2.413c1.343,2.048,3.88,3.158,6.631,2.898c2.61-0.245,4.691-1.675,5.578-3.819
		c1.264-3.073,1.943-11.462-0.739-15.957c-0.024-0.04-0.046-0.072-0.067-0.113c0.036-0.001,0.071,0,0.109,0.002
		c2.634,0.044,5.356,0.098,7.174-1.327l-1.99-2.538c-0.914,0.714-3.151,0.674-5.125,0.638c-1.776-0.032-3.612-0.067-5.116,0.377
		l-4.748,1.397c0.803-6.607,1.039-12.149,0.743-17.258c-0.127-2.223-0.246-4.451-0.364-6.679c-0.06-1.138-0.118-2.28-0.181-3.418
		c-0.025-0.465,0.004-1.306,0.035-2.202c0.144-3.998,0.151-7.176-1.14-8.711c-1.22-1.442-3.434-1.407-4.897-0.64
		c-3.127,1.646-3.391,6.756-3.585,10.486c-0.033,0.65-0.064,1.216-0.105,1.646c-1.081,10.981-0.35,21.448,2.176,31.099
		C141.973,189.41,142.653,191.807,143.536,194.213z M148.385,185.689c0.071-0.508,0.137-1.009,0.203-1.507l5.187,0.548
		c0.497,0.052,1.242,0.257,1.958,1.459c2.018,3.385,1.542,10.605,0.523,13.075c-0.419,1.021-1.503,1.706-2.898,1.841
		c-1.526,0.144-2.953-0.43-3.629-1.459c-1.123-1.715-2.053-3.671-2.831-5.661C147.489,191.324,147.993,188.528,148.385,185.689z
		 M142.455,156.511c0.05-0.498,0.081-1.098,0.116-1.789c0.119-2.276,0.365-7.012,1.865-7.799c0.183-0.097,0.396-0.141,0.58-0.15
		c0.158-0.009,0.298,0.011,0.367,0.042c0.569,0.866,0.423,4.942,0.366,6.487c-0.035,1.009-0.067,1.882-0.033,2.492
		c0.062,1.139,0.121,2.274,0.182,3.416c0.118,2.23,0.237,4.464,0.366,6.697c0.32,5.575-0.019,11.721-1.074,19.342
		c-0.11,0.786-0.227,1.568-0.353,2.351c-0.103-0.384-0.202-0.757-0.296-1.117C142.112,177.195,141.412,167.116,142.455,156.511z"/>
	<path i:knockout="Off" fill="#FFFFFF" stroke="#1F1E21" stroke-width="1.4173" stroke-miterlimit="10" d="M106.304,211.444
		c2.452-5.271,4.113-12.193,5.232-21.791c0.005-0.04,0.012-0.083,0.018-0.125c2.452,0.045,4.945,0.068,7.454-0.068
		c0.131-0.008,0.265-0.017,0.397-0.026c0.816,2.008,1.718,4.021,2.723,6.048c0.21,0.424,0.421,0.868,0.638,1.315
		c1.293,2.696,2.761,5.763,5.186,7.739c2.462,2.016,5.74,2.061,8.375,2.095l0.52,0.009l0.054-3.225l-0.531-0.006
		c-2.353-0.033-4.786-0.067-6.38-1.37c-1.867-1.521-3.167-4.239-4.316-6.636c-0.221-0.465-0.438-0.919-0.654-1.355
		c-0.819-1.65-1.564-3.288-2.252-4.923c1.395-0.178,3.047-0.529,4.001-1.851l-2.842-2.053c-0.252,0.281-1.565,0.428-2.197,0.499
		l-0.138,0.014c-0.052,0.006-0.106,0.007-0.159,0.013c-1.119-3.037-2.028-6.075-2.732-9.163c-0.748-3.284-1.153-6.758-1.544-10.113
		c-0.472-4.053-0.959-8.242-2.056-12.25l-1.684-6.144l-1.443,6.204c-0.957,4.093-1.03,8.446-1.099,12.652
		c-0.03,1.908-0.06,3.708-0.167,5.484c-0.196,3.269-0.762,6.614-1.31,9.846c-0.205,1.218-0.413,2.459-0.606,3.708
		c-0.791-0.015-1.585-0.029-2.378-0.031l-0.021,3.499c0.635,0.007,1.277,0.017,1.917,0.029c-1.061,9.022-2.675,15.767-4.931,20.613
		L106.304,211.444z M112.577,182.804c0.562-3.317,1.143-6.75,1.348-10.191c0.093-1.521,0.13-3.096,0.158-4.641
		c0.364,3.091,0.77,6.253,1.473,9.332c0.668,2.926,1.512,5.808,2.532,8.683c-2.016,0.084-4.038,0.081-6.043,0.045
		C112.215,184.948,112.396,183.867,112.577,182.804z"/>
	<path i:knockout="Off" fill="#FFFFFF" stroke="#1F1E21" stroke-width="1.4173" stroke-miterlimit="10" d="M168.616,176.081
		c0.084,3.672,0.169,7.461,1.196,10.989c1.143,3.915,4.61,15.831,15.916,15.218c0.011,0,0.02,0,0.028-0.001
		c5.821-0.328,8.237-5.695,10-9.617l0.252-0.566l-2.934-1.328l-0.26,0.573c-1.658,3.687-3.374,7.5-7.239,7.718
		c-0.007,0-0.016,0-0.024,0c-6.05,0.328-9.948-3.651-12.643-12.901c-0.908-3.118-0.989-6.695-1.069-10.156
		c-0.028-1.284-0.06-2.614-0.132-3.897c-0.329-5.798,0.52-11.573,2.391-16.258c1.586-3.982,4.453-6.819,7.668-7.573
		c1.098-0.258,1.787-0.168,1.932-0.087c-0.049-0.032-0.122-0.118-0.137-0.19l3.132-0.762c-0.495-2.036-2.613-2.822-5.669-2.1
		c-4.235,1.002-7.944,4.557-9.924,9.515c-2.037,5.118-2.966,11.379-2.611,17.636C168.559,173.522,168.586,174.766,168.616,176.081z"
		/>
	<path i:knockout="Off" fill="#FFFFFF" stroke="#FFFFFF" stroke-width="1.4173" stroke-miterlimit="10" d="M124.515,442.605
		c-0.877,2.65-2.175,6.109-2.325,8.719c2.707-0.365,3.187-2.345,3.716-3.635c2.35-5.666,4.537-12.06,5.117-17.678
		C123.537,430.909,126.22,437.44,124.515,442.605z"/>
	<path i:knockout="Off" fill="#010101" stroke="#010101" stroke-width="1.4173" stroke-miterlimit="10" d="M165.718,183.1
		l-1.99-2.538c-0.914,0.714-3.151,0.674-5.125,0.638c-1.776-0.032-3.612-0.067-5.116,0.377l-4.748,1.397
		c0.803-6.607,1.039-12.149,0.743-17.258c-0.127-2.223-0.246-4.451-0.364-6.679c-0.06-1.138-0.118-2.28-0.181-3.418
		c-0.025-0.465,0.004-1.306,0.035-2.202c0.144-3.998,0.151-7.176-1.14-8.711c-1.22-1.442-3.434-1.407-4.897-0.64
		c-3.127,1.646-3.391,6.756-3.585,10.486c-0.033,0.65-0.064,1.216-0.105,1.646c-1.081,10.981-0.35,21.448,2.176,31.099
		c0.552,2.113,1.232,4.509,2.115,6.916c-0.407,1.741-0.853,3.412-1.332,4.987c-0.114,0.371-0.229,0.821-0.353,1.295
		c-0.297,1.139-0.793,3.042-1.271,3.622l2.487,2.05c0.862-1.041,1.353-2.744,1.904-4.857c0.117-0.443,0.225-0.863,0.316-1.167
		c0.116-0.375,0.229-0.755,0.337-1.142c0.435,0.833,0.9,1.643,1.406,2.413c1.343,2.048,3.88,3.158,6.631,2.898
		c2.61-0.245,4.691-1.675,5.578-3.819c1.264-3.073,1.943-11.462-0.739-15.957c-0.024-0.04-0.046-0.072-0.067-0.113
		c0.036-0.001,0.071,0,0.109,0.002C161.178,184.471,163.9,184.524,165.718,183.1z M145.19,185.249
		c-0.11,0.786-0.227,1.568-0.353,2.351c-0.103-0.384-0.202-0.757-0.296-1.117c-2.429-9.288-3.129-19.367-2.086-29.972
		c0.05-0.498,0.081-1.098,0.116-1.789c0.119-2.276,0.365-7.012,1.865-7.799c0.183-0.097,0.396-0.141,0.58-0.15
		c0.158-0.009,0.298,0.011,0.367,0.042c0.569,0.866,0.423,4.942,0.366,6.487c-0.035,1.009-0.067,1.882-0.033,2.492
		c0.062,1.139,0.121,2.274,0.182,3.416c0.118,2.23,0.237,4.464,0.366,6.697C146.583,171.482,146.245,177.628,145.19,185.249z
		 M156.256,199.264c-0.419,1.021-1.503,1.706-2.898,1.841c-1.526,0.144-2.953-0.43-3.629-1.459
		c-1.123-1.715-2.053-3.671-2.831-5.661c0.591-2.66,1.096-5.456,1.487-8.295c0.071-0.508,0.137-1.009,0.203-1.507l5.187,0.548
		c0.497,0.052,1.242,0.257,1.958,1.459C157.75,189.574,157.274,196.794,156.256,199.264z"/>
	<path i:knockout="Off" fill="#010101" stroke="#010101" stroke-width="1.4173" stroke-miterlimit="10" d="M106.304,211.444
		c2.452-5.271,4.113-12.193,5.232-21.791c0.005-0.04,0.012-0.083,0.018-0.125c2.452,0.045,4.945,0.068,7.454-0.068
		c0.131-0.008,0.265-0.017,0.397-0.026c0.816,2.008,1.718,4.021,2.723,6.048c0.21,0.424,0.421,0.868,0.638,1.315
		c1.293,2.696,2.761,5.763,5.186,7.739c2.462,2.016,5.74,2.061,8.375,2.095l0.52,0.009l0.054-3.225l-0.531-0.006
		c-2.353-0.033-4.786-0.067-6.38-1.37c-1.867-1.521-3.167-4.239-4.316-6.636c-0.221-0.465-0.438-0.919-0.654-1.355
		c-0.819-1.65-1.564-3.288-2.252-4.923c1.395-0.178,3.047-0.529,4.001-1.851l-2.842-2.053c-0.252,0.281-1.565,0.428-2.197,0.499
		l-0.138,0.014c-0.052,0.006-0.106,0.007-0.159,0.013c-1.119-3.037-2.028-6.075-2.732-9.163c-0.748-3.284-1.153-6.758-1.544-10.113
		c-0.472-4.053-0.959-8.242-2.056-12.25l-1.684-6.144l-1.443,6.204c-0.957,4.093-1.03,8.446-1.099,12.652
		c-0.03,1.908-0.06,3.708-0.167,5.484c-0.196,3.269-0.762,6.614-1.31,9.846c-0.205,1.218-0.413,2.459-0.606,3.708
		c-0.791-0.015-1.585-0.029-2.378-0.031l-0.021,3.499c0.635,0.007,1.277,0.017,1.917,0.029c-1.061,9.022-2.675,15.767-4.931,20.613
		L106.304,211.444z M112.577,182.804c0.562-3.317,1.143-6.75,1.348-10.191c0.093-1.521,0.13-3.096,0.158-4.641
		c0.364,3.091,0.77,6.253,1.473,9.332c0.668,2.926,1.512,5.808,2.532,8.683c-2.016,0.084-4.038,0.081-6.043,0.045
		C112.215,184.948,112.396,183.867,112.577,182.804z"/>
	<path i:knockout="Off" fill="#010101" stroke="#010101" stroke-width="1.4173" stroke-miterlimit="10" d="M181.025,145.143
		c-4.235,1.002-7.944,4.557-9.924,9.515c-2.037,5.118-2.966,11.379-2.611,17.636c0.069,1.229,0.097,2.473,0.127,3.788
		c0.084,3.672,0.169,7.461,1.196,10.989c1.143,3.915,4.61,15.831,15.916,15.218c0.011,0,0.02,0,0.028-0.001
		c5.821-0.328,8.237-5.695,10-9.617l0.252-0.566l-2.934-1.328l-0.26,0.573c-1.658,3.687-3.374,7.5-7.239,7.718
		c-0.007,0-0.016,0-0.024,0c-6.05,0.328-9.948-3.651-12.643-12.901c-0.908-3.118-0.989-6.695-1.069-10.156
		c-0.028-1.284-0.06-2.614-0.132-3.897c-0.329-5.798,0.52-11.573,2.391-16.258c1.586-3.982,4.453-6.819,7.668-7.573
		c1.098-0.258,1.787-0.168,1.932-0.087c-0.049-0.032-0.122-0.118-0.137-0.19l3.132-0.762
		C186.2,145.207,184.081,144.421,181.025,145.143z"/>
	<path i:knockout="Off" fill="#FFFFFF" stroke="#FFFFFF" stroke-width="1.4173" stroke-miterlimit="10" d="M90.307,115.075
		c0,0.631,0.861,1.136,1.92,1.136c1.062,0,1.922-0.505,1.922-1.136c0-0.625-0.859-1.134-1.922-1.134
		C91.168,113.941,90.307,114.45,90.307,115.075z"/>
	<path i:knockout="Off" fill="#FFFFFF" stroke="#FFFFFF" stroke-width="1.4173" stroke-miterlimit="10" d="M193.286,110.5
		c0-0.845-0.4-1.532-0.892-1.532c-0.491,0-0.89,0.687-0.89,1.532c0,0.845,0.399,1.527,0.89,1.527
		C192.885,112.027,193.286,111.345,193.286,110.5z"/>
	<path i:knockout="Off" fill="#B5B5B5" d="M368.787,205.758c-15.219,0.771-27.592,14.744-27.592,32.938
		c0,18.187,2.303,28.048,26.28,26.824c15.218-0.773,28.905-8.638,28.905-26.824C396.381,220.502,393,204.537,368.787,205.758z"/>
	<path i:knockout="Off" fill="#FFFFFF" stroke="#FFFFFF" stroke-width="1.4173" stroke-miterlimit="10" d="M135.203,425.354
		c15.195,4.822,35.108,7.656,49.27,10.694c1.433,0.345,0.567-1.604,2.324-0.934c0.04,1.269-0.774,0.935,0,1.864
		c6.473,0.376,11.253,2.678,16.734,0.462c-20.927-6.188-43.149-11.08-65.538-15.802
		C137.106,422.803,134.256,423.832,135.203,425.354z"/>
	<path i:knockout="Off" fill="#B5B5B5" d="M461.599,404.96c-0.022-11.621,0.041-25.489,0.19-41.462
		c0.361-38.771,1.109-76.909,1.118-77.289c0.026-1.324-0.878-2.484-2.164-2.787c-0.216-0.05-0.429-0.074-0.642-0.074
		c-1.067,0-2.066,0.611-2.537,1.607l-6.799,14.414c-1.887-1.678-4.523-3.98-7.292-6.267c-9.994-8.249-13.263-9.36-15.142-9.36
		c-0.334,0-0.658,0.039-0.965,0.113c-2.037,0.486-2.473,2.621-2.682,3.648c-1.861,9.133-2.785,52.79-2.709,89.23
		c0.045,21.355,0.408,39.989,1.049,53.888c0.291,6.318,0.641,11.554,1.037,15.643C438.022,433.916,450.618,420.064,461.599,404.96z"
		/>
	<path i:knockout="Off" fill="#FFFFFF" stroke="#FFFFFF" stroke-width="1.4173" stroke-miterlimit="10" d="M101.74,108.363
		c30.562-5.588,60.983-2.726,94.357-4.187c-32.534-1.524-68.536-1.47-99.472,1.862c-3.921,0.422-9.023-0.486-11.62,2.791
		C90.7,111.407,97.36,106.593,101.74,108.363z"/>
</g>
</svg>
