<?xml version="1.0" encoding="UTF-8" standalone="no"?>
<svg version="1.1" width="100" height="100" viewBox="0 0 100 100" xmlns="http://www.w3.org/2000/svg">
  <circle fill="#005a5d" cx="50" cy="50" r="50" />
  <path fill="#b5b5b5" d="m 49.08,49.76 c 0,0 -0.1,-0.11 -0.14,-0.17 0.2,0.57 0.49,1.1 0.86,1.57 -0.11,-0.3 -0.25,-0.61 -0.33,-0.91 -0.12,-0.15 -0.25,-0.33 -0.39,-0.49 z" style="stroke-width:0.196" />
  <path fill="#b5b5b5" d="m 60.88,38 c -0.2,0.79 -0.28,1.45 -0.28,2.51 0.69,-0.35 1.3,-0.76 1.96,-1.11 -0.45,-0.57 -1.13,-0.91 -1.68,-1.4 z" style="stroke-width:0.196" />
  <g transform="scale(0.196)">
    <path fill="#b5b5b5" d="m 293.3,283.3 c -5.5,-2.5 -33.7,8.2 -36.5,13 -0.1,0.2 -0.3,0.9 -0.4,1.9 -1.5,1.3 -3.4,2.1 -5.5,2.1 -2.7,0 -5.3,-1.2 -7.6,-3.3 -4.8,-4.3 -9.5,-15.1 -9.6,-22.1 0,-1.2 -0.1,-12 3.7,-13.4 0.4,-0.1 0.8,-0.2 1.3,-0.2 2.4,0 5.4,2.1 8.6,4.3 2.9,2.1 5.9,4.2 8.2,4.5 1.6,-2.2 0.2,-5.5 -1.3,-8.9 0,-0.1 0,-0.1 -0.1,-0.2 4.7,5.9 11.8,9.6 19.7,9.6 14.1,0 25.5,-6.5 25.5,-26.7 0,-14.7 -11.5,-25.4 -25.5,-26.7 -23,-2.1 -25.6,12 -25.6,26.7 0,3.2 0.5,6.2 1.5,9.1 -0.7,-0.9 -1.3,-1.8 -2,-2.6 -0.4,0 -0.8,0 -1.2,0 -1.1,0.8 -2.6,1.6 -4.6,1.6 -0.2,0 -0.5,-0.1 -0.7,-0.1 -0.9,0.3 -1.9,0.4 -3,0.6 -4,1.9 -7.1,6.9 -8.2,13.3 -1.6,9.2 0.7,22.7 11.9,33.6 3.3,3.2 6.7,4.8 10,4.8 1.3,0 2.6,-0.3 3.9,-0.8 -2.9,29.9 -6.6,142.7 -3.8,144.3 16.8,9.5 36.2,7.4 40.3,3.7 4,-3.7 6.5,-165.6 1,-168.1 z M 242,258 c 1.3,-1.4 2.9,-1.8 4.3,-2.1 0.6,-0.1 1.1,-0.3 1.7,-0.5 l 0.6,-0.2 0.4,0.6 c 1.3,1.8 1.7,3.5 2.1,5.1 0.1,0.7 0.3,1.4 0.6,2.1 l 0.7,2.2 -2,-1.2 c -1.3,-0.7 -2.7,-1.5 -4,-2.2 -1.4,-0.8 -2.8,-1.6 -4.2,-2.4 l -1,-0.6 z" />
    <path fill="#b5b5b5" d="m 246.4,261.7 c 1.3,0.8 2.7,1.6 4,2.3 l 2,1.2 -0.7,-2.2 c -0.3,-0.7 -0.5,-1.4 -0.6,-2.1 -0.4,-1.6 -0.8,-3.3 -2.1,-5.1 l -0.4,-0.6 -0.6,0.2 c -0.6,0.2 -1.1,0.4 -1.7,0.5 -1.4,0.3 -3,0.7 -4.3,2.1 l -0.8,0.8 1,0.6 c 1.4,0.8 2.8,1.6 4.2,2.3 z" />
  </g>
  <path fill="#b5b5b5" d="M 75.5,53.86 C 74.44,53.37 69.07,55.39 68.36,56.35 66.84,55.72 65.7,54.8 64.74,53.68 62.68,51.29 61,48.1 60.68,44.02 60.62,43.37 60.43,42.04 60.6,41.43 60.84,40.69 63.19,40.22 63.27,39.45 63.35,38.59 61,37.63 60.6,37.14 60.25,36.32 60.19,35.2 59.7,34.5 h -0.1 c -0.6,0.21 -0.15,1 -0.1,1.58 0.1,0.71 0,1.47 0.28,1.98 -0.28,1.12 -0.18,2.98 -0.14,4.32 0.12,3.64 0.92,6.35 2.67,8.99 1.58,2.41 3.23,4.41 5.86,5.55 -0.55,3.96 -1.43,28.83 -0.83,29.16 3.3,1.87 7.1,1.45 7.88,0.73 0.81,-0.73 1.28,-32.46 0.22,-32.95 z" style="stroke-width:0.196" />
  <path fill="#b5b5b5" d="m 72.28,40.34 c -2.97,0.13 -5.4,2.88 -5.4,6.45 0,3.56 0.45,5.48 5.15,5.25 2.98,-0.16 5.66,-1.69 5.66,-5.25 0,-3.57 -0.66,-6.71 -5.41,-6.45 z" style="stroke-width:0.196" />
  <path fill="#b5b5b5" d="m 91.81,49.08 c -0.14,-2.65 -1.51,-5.04 -4.69,-5.04 -3.17,0 -5.98,0.59 -5.76,4.82 0.14,2.65 2.59,4.82 5.76,4.82 3.18,0 4.9,-0.41 4.69,-4.6 z" style="stroke-width:0.196" />
  <path fill="#ffffff" stroke="#ffffff" stroke-width="0.277791" stroke-miterlimit="10" d="m 17.7,22.56 c 0,0.12 0.17,0.22 0.38,0.22 0.2,0 0.37,-0.1 0.37,-0.22 0,-0.12 -0.17,-0.24 -0.37,-0.24 -0.21,0 -0.38,0.12 -0.38,0.24 z" />
  <path fill="#ffffff" d="m 16.1,55.21 c 1.66,-3.35 2.27,-10.05 1.79,-19.93 -0.24,-5 -0.71,-9.58 -0.99,-12.01 0.65,0 12.21,0.39 17.56,-0.49 L 16.9,23.27 C 16.77,22.13 16.68,21.46 16.68,21.44 L 16,21.52 c 0,0 0,0 0,0 v 0 c 0,0 0,0.1 0,0.2 v 0 c 0,0.23 0.48,24.95 0,27.46 h 0.17 c 0.36,-1.91 0.19,-15.8 0.1,-23.09 0.33,7.25 0.84,20.81 0.15,23.32 l 0.33,0.1 c 0.69,-2.51 0.24,-15.29 -0.1,-22.72 0.23,2.37 0.47,5.33 0.62,8.47 0.46,9.62 -0.13,16.38 -1.72,19.58 z" style="stroke-width:0.196" />
  <path fill="#ffffff" stroke="#ffffff" stroke-width="0.277791" stroke-miterlimit="10" d="m 37.89,21.66 c 0,-0.16 -0.1,-0.3 -0.18,-0.3 -0.1,0 -0.18,0.14 -0.18,0.3 0,0.15 0.1,0.29 0.18,0.29 0.1,0 0.18,-0.14 0.18,-0.29 z" />
  <path fill="#ffffff" stroke="#ffffff" stroke-width="0.277791" stroke-miterlimit="10" d="m 19.93,21.25 c 6,-1.1 11.96,-0.55 18.51,-0.83 -6.37,-0.29 -13.43,-0.29 -19.5,0.36 -0.77,0.1 -1.77,-0.1 -2.28,0.54 1.12,0.51 2.42,-0.43 3.27,-0.1 z" />
  <path fill="#ffffff" stroke="#ffffff" stroke-width="0.277791" stroke-miterlimit="10" d="m 24.4,86.75 c -0.17,0.53 -0.43,1.2 -0.45,1.7 0.53,0 0.63,-0.45 0.73,-0.7 0.47,-1.12 0.88,-2.37 1,-3.47 -1.47,0.18 -0.94,1.45 -1.28,2.47 z" />
  <path fill="#ffffff" stroke="#ffffff" stroke-width="0.277791" stroke-miterlimit="10" d="m 40.73,34.61 c 0,-4.27 0.18,-8.82 -0.28,-12.09 -0.1,0 -0.17,0 -0.25,0 0,0.31 0,0.63 0,0.92 -0.1,3.43 0,7.92 0.1,10.86 0.12,7.53 0.1,15.39 0.43,22.13 -8.41,-1.04 -15.41,-0.39 -23.57,0.43 -0.77,0.51 -2.24,0.31 -2.74,1.1 3.98,-0.28 8.3,-1.1 13.22,-1.2 -0.63,1.79 0.37,4.04 0.35,6.02 0,6.86 -1.16,13.58 -2.35,19.6 -3.45,0 -7.88,1.27 -9.3,3.17 2.27,-1.17 5.69,-2.58 8.93,-2.54 0.5,0 0.6,0.41 1.09,0.1 0.49,-2.03 0.87,-4.37 1.28,-6.74 1.02,-6.13 1.84,-13.64 0.55,-19.68 3.62,0 8.8,0 13.11,0.63 0,-0.27 0,-0.55 0,-0.82 -0.16,0 -0.34,0 -0.49,-0.1 0.29,-6.78 0,-14.66 0,-21.82 z" />
  <path fill="#ffffff" stroke="#ffffff" stroke-width="0.277791" stroke-miterlimit="10" d="m 26.5,83.38 c 2.98,0.94 6.88,1.49 9.66,2.08 0.28,0.1 0.1,-0.32 0.45,-0.18 0,0.25 -0.15,0.18 0,0.37 1.28,0.1 2.22,0.53 3.28,0.1 -4.1,-1.2 -8.45,-2.16 -12.84,-3.1 -0.18,0.24 -0.73,0.43 -0.55,0.75 z" />
  <path fill="#ffffff" stroke="#1f1e21" stroke-width="0.277791" stroke-miterlimit="10" d="m 28.13,38.06 c -0.1,0.36 -0.16,0.67 -0.26,0.98 0,0.1 0,0.16 -0.1,0.26 -0.1,0.21 -0.15,0.59 -0.25,0.7 l 0.49,0.42 c 0.15,-0.22 0.25,-0.55 0.37,-0.97 0,-0.1 0,-0.17 0.1,-0.23 0,-0.1 0,-0.14 0.1,-0.22 0.1,0.16 0.17,0.32 0.27,0.47 0.28,0.42 0.77,0.63 1.32,0.57 0.5,0 0.92,-0.33 1.07,-0.74 0.26,-0.61 0.4,-2.26 -0.13,-3.14 0,0 0,0 0,0 0,0 0,0 0,0 0.53,0 1.05,0 1.41,-0.25 L 32.09,35.4 c -0.18,0.13 -0.61,0.12 -1,0.12 -0.36,0 -0.71,0 -1,0.1 l -0.94,0.28 c 0.15,-1.3 0.21,-2.39 0.15,-3.39 0,-0.43 -0.1,-0.87 -0.1,-1.32 0,-0.21 0,-0.43 0,-0.66 0,-0.1 0,-0.26 0,-0.43 0,-0.79 0,-1.41 -0.23,-1.71 -0.24,-0.27 -0.67,-0.27 -0.96,-0.12 -0.61,0.32 -0.67,1.32 -0.71,2.04 0,0.14 0,0.26 0,0.34 -0.19,2.15 -0.1,4.19 0.43,6.09 0.12,0.41 0.26,0.88 0.42,1.35 z m 0.96,-1.66 c 0,-0.1 0,-0.2 0,-0.3 l 1.01,0.1 c 0.1,0 0.24,0.1 0.38,0.3 0.41,0.66 0.31,2.07 0.11,2.56 -0.1,0.2 -0.29,0.34 -0.56,0.36 -0.32,0 -0.59,-0.1 -0.73,-0.3 -0.21,-0.33 -0.39,-0.7 -0.55,-1.1 0.12,-0.53 0.22,-1.07 0.3,-1.62 z m -1.16,-5.73 c 0,-0.1 0,-0.21 0,-0.35 0,-0.45 0.1,-1.37 0.35,-1.53 0,0 0.1,0 0.12,0 0,0 0.1,0 0.1,0 0.12,0.18 0.1,0.98 0.1,1.28 0,0.19 0,0.37 0,0.49 0,0.21 0,0.45 0,0.66 0,0.43 0,0.89 0.1,1.32 0.1,1.09 0,2.29 -0.21,3.78 0,0.16 0,0.31 -0.1,0.47 0,-0.1 0,-0.16 -0.1,-0.22 -0.47,-1.82 -0.61,-3.8 -0.39,-5.88 z" />
  <path fill="#ffffff" stroke="#1f1e21" stroke-width="0.277791" stroke-miterlimit="10" d="m 20.83,41.43 c 0.49,-1.01 0.81,-2.37 1.02,-4.25 0,0 0,0 0,0 0.47,0 0.96,0 1.45,0 0,0 0.1,0 0.1,0 0.16,0.39 0.34,0.81 0.53,1.2 0,0.1 0.1,0.15 0.14,0.25 0.25,0.53 0.53,1.14 1.02,1.51 0.47,0.41 1.12,0.41 1.62,0.41 h 0.1 v -0.62 h -0.1 c -0.47,0 -0.94,0 -1.25,-0.28 -0.37,-0.29 -0.63,-0.82 -0.84,-1.29 0,-0.1 -0.1,-0.18 -0.14,-0.28 -0.16,-0.31 -0.29,-0.62 -0.43,-0.96 0.27,0 0.59,-0.1 0.78,-0.35 L 24.28,36.3 c 0,0.1 -0.29,0.1 -0.43,0.1 v 0 c 0,0 0,0 0,0 -0.21,-0.59 -0.39,-1.18 -0.52,-1.79 -0.14,-0.64 -0.24,-1.33 -0.3,-1.98 -0.1,-0.8 -0.19,-1.62 -0.41,-2.41 l -0.33,-1.19 -0.28,1.21 c -0.19,0.81 -0.21,1.65 -0.21,2.47 0,0.37 0,0.73 0,1.08 0,0.65 -0.16,1.29 -0.26,1.94 0,0.24 -0.1,0.47 -0.12,0.73 -0.15,0 -0.31,0 -0.47,0 v 0.68 c 0.12,0 0.26,0 0.38,0 -0.22,1.77 -0.53,3.08 -0.96,4.04 z m 1.24,-5.6 c 0.1,-0.65 0.22,-1.31 0.25,-2 0,-0.29 0,-0.61 0,-0.9 0.1,0.61 0.16,1.21 0.3,1.82 0.12,0.57 0.29,1.14 0.49,1.71 -0.39,0 -0.81,0 -1.2,0 0,-0.22 0.1,-0.42 0.12,-0.63 z" />
  <path fill="#ffffff" stroke="#1f1e21" stroke-width="0.277791" stroke-miterlimit="10" d="m 33.05,34.52 c 0,0.72 0,1.45 0.23,2.15 0.24,0.77 0.9,3.1 3.12,2.98 0,0 0,0 0,0 1.13,-0.1 1.6,-1.12 1.96,-1.88 v -0.12 l -0.57,-0.25 -0.1,0.1 c -0.31,0.73 -0.67,1.47 -1.41,1.53 0,0 0,0 0,0 -1.2,0.1 -1.96,-0.72 -2.49,-2.52 -0.18,-0.63 -0.2,-1.32 -0.22,-2 0,-0.26 0,-0.51 0,-0.77 -0.1,-1.14 0.1,-2.27 0.47,-3.17 0.32,-0.79 0.89,-1.36 1.51,-1.49 0.22,-0.1 0.36,0 0.38,0 0,0 0,0 0,0 l 0.6,-0.16 c -0.1,-0.39 -0.51,-0.55 -1.11,-0.41 -0.83,0.2 -1.55,0.9 -1.94,1.88 -0.4,1 -0.59,2.22 -0.51,3.45 0,0.24 0,0.49 0,0.75 z" />
  <path fill="#ffffff" stroke="#ffffff" stroke-width="0.277791" stroke-miterlimit="10" d="m 24.4,86.75 c -0.17,0.53 -0.43,1.2 -0.45,1.7 0.53,0 0.63,-0.45 0.73,-0.7 0.47,-1.12 0.88,-2.37 1,-3.47 -1.47,0.18 -0.94,1.45 -1.28,2.47 z" />
  <path fill="#010101" stroke="#010101" stroke-width="0.277791" stroke-miterlimit="10" d="M 32.48,35.89 32.09,35.4 c -0.18,0.13 -0.61,0.12 -1,0.12 -0.36,0 -0.71,0 -1,0.1 l -0.94,0.28 c 0.15,-1.3 0.21,-2.39 0.15,-3.39 0,-0.43 -0.1,-0.87 -0.1,-1.32 0,-0.21 0,-0.43 0,-0.66 0,-0.1 0,-0.26 0,-0.43 0,-0.79 0,-1.41 -0.23,-1.71 -0.24,-0.27 -0.67,-0.27 -0.96,-0.12 -0.61,0.32 -0.67,1.32 -0.71,2.06 0,0.12 0,0.24 0,0.32 -0.19,2.15 -0.1,4.19 0.43,6.09 0.12,0.41 0.26,0.88 0.42,1.35 -0.1,0.36 -0.16,0.67 -0.26,0.98 0,0.1 0,0.16 -0.1,0.26 -0.1,0.21 -0.15,0.59 -0.25,0.7 l 0.49,0.42 c 0.15,-0.22 0.25,-0.55 0.37,-0.97 0,-0.1 0,-0.17 0.1,-0.23 0,-0.1 0,-0.14 0.1,-0.22 0.1,0.16 0.17,0.32 0.27,0.47 0.28,0.42 0.77,0.63 1.32,0.57 0.5,0 0.92,-0.33 1.07,-0.74 0.26,-0.61 0.4,-2.26 -0.13,-3.14 0,0 0,0 0,0 0,0 0,0 0,0 0.53,0 1.05,0 1.41,-0.25 z m -4.02,0.41 c 0,0.16 0,0.31 -0.1,0.47 0,-0.1 0,-0.16 -0.1,-0.22 -0.47,-1.82 -0.61,-3.8 -0.39,-5.88 0,-0.1 0,-0.21 0,-0.35 0,-0.45 0.1,-1.37 0.35,-1.53 0,0 0.1,0 0.12,0 0,0 0.1,0 0.1,0 0.12,0.18 0.1,0.98 0.1,1.28 0,0.19 0,0.37 0,0.49 0,0.21 0,0.45 0,0.66 0,0.43 0,0.89 0.1,1.32 0.1,1.09 0,2.29 -0.21,3.78 z m 2.17,2.76 c -0.1,0.2 -0.29,0.34 -0.56,0.36 -0.32,0 -0.59,-0.1 -0.73,-0.3 -0.21,-0.33 -0.39,-0.7 -0.55,-1.1 0.12,-0.53 0.22,-1.07 0.3,-1.62 0,-0.1 0,-0.2 0,-0.3 l 1.01,0.1 c 0.1,0 0.24,0.1 0.38,0.3 0.41,0.66 0.31,2.07 0.11,2.56 z" />
  <path fill="#010101" stroke="#010101" stroke-width="0.277791" stroke-miterlimit="10" d="m 20.83,41.43 c 0.49,-1.01 0.81,-2.37 1.02,-4.25 0,0 0,0 0,0 0.47,0 0.96,0 1.45,0 0,0 0.1,0 0.1,0 0.16,0.39 0.34,0.81 0.53,1.2 0,0.1 0.1,0.15 0.14,0.25 0.25,0.53 0.53,1.14 1.02,1.51 0.47,0.41 1.12,0.41 1.62,0.41 h 0.1 v -0.62 h -0.1 c -0.47,0 -0.94,0 -1.25,-0.28 -0.37,-0.29 -0.63,-0.82 -0.84,-1.29 0,-0.1 -0.1,-0.18 -0.14,-0.28 -0.16,-0.31 -0.29,-0.62 -0.43,-0.96 0.27,0 0.59,-0.1 0.78,-0.35 L 24.28,36.3 c 0,0.1 -0.29,0.1 -0.43,0.1 v 0 c 0,0 0,0 0,0 -0.21,-0.59 -0.39,-1.18 -0.52,-1.79 -0.14,-0.64 -0.24,-1.33 -0.3,-1.98 -0.1,-0.8 -0.19,-1.62 -0.41,-2.41 l -0.33,-1.19 -0.28,1.21 c -0.19,0.81 -0.21,1.65 -0.21,2.47 0,0.37 0,0.73 0,1.08 0,0.65 -0.16,1.29 -0.26,1.94 0,0.24 -0.1,0.47 -0.12,0.73 -0.15,0 -0.31,0 -0.47,0 v 0.68 c 0.12,0 0.26,0 0.38,0 -0.22,1.77 -0.53,3.08 -0.96,4.04 z m 1.24,-5.6 c 0.1,-0.65 0.22,-1.31 0.25,-2 0,-0.29 0,-0.61 0,-0.9 0.1,0.61 0.16,1.21 0.3,1.82 0.12,0.57 0.29,1.14 0.49,1.71 -0.39,0 -0.81,0 -1.2,0 0,-0.22 0.1,-0.42 0.12,-0.63 z" />
  <path fill="#010101" stroke="#010101" stroke-width="0.277791" stroke-miterlimit="10" d="m 35.48,28.44 c -0.83,0.2 -1.55,0.9 -1.94,1.88 -0.4,1 -0.59,2.22 -0.51,3.45 0,0.24 0,0.49 0,0.75 0,0.72 0,1.45 0.23,2.15 0.24,0.77 0.9,3.1 3.12,2.98 0,0 0,0 0,0 1.13,-0.1 1.6,-1.12 1.96,-1.88 v -0.12 l -0.57,-0.25 -0.1,0.11 c -0.31,0.71 -0.67,1.47 -1.41,1.51 0,0 0,0 0,0 -1.2,0.1 -1.96,-0.72 -2.49,-2.52 -0.18,-0.63 -0.2,-1.32 -0.22,-2 0,-0.26 0,-0.51 0,-0.77 -0.1,-1.14 0.1,-2.27 0.47,-3.17 0.32,-0.79 0.89,-1.36 1.51,-1.49 0.22,-0.1 0.36,0 0.38,0 0,0 0,0 0,0 l 0.6,-0.16 c -0,-0.45 -0.43,-0.61 -1.03,-0.47 z" />
  <path fill="#ffffff" stroke="#ffffff" stroke-width="0.277791" stroke-miterlimit="10" d="m 17.7,22.56 c 0,0.12 0.17,0.22 0.38,0.22 0.2,0 0.37,-0.1 0.37,-0.22 0,-0.12 -0.17,-0.24 -0.37,-0.24 -0.21,0 -0.38,0.12 -0.38,0.24 z" />
  <path fill="#ffffff" stroke="#ffffff" stroke-width="0.277791" stroke-miterlimit="10" d="m 37.89,21.66 c 0,-0.16 -0.1,-0.3 -0.18,-0.3 -0.1,0 -0.18,0.14 -0.18,0.3 0,0.15 0.1,0.29 0.18,0.29 0.1,0 0.18,-0.14 0.18,-0.29 z" />
  <path fill="#b5b5b5" d="m 72.28,40.34 c -2.97,0.13 -5.4,2.88 -5.4,6.45 0,3.56 0.45,5.48 5.15,5.25 2.98,-0.16 5.66,-1.69 5.66,-5.25 0,-3.57 -0.66,-6.71 -5.41,-6.45 z" style="stroke-width:0.196" />
  <path fill="#ffffff" stroke="#ffffff" stroke-width="0.277791" stroke-miterlimit="10" d="m 26.5,83.38 c 2.98,0.94 6.88,1.49 9.66,2.08 0.28,0.1 0.1,-0.32 0.45,-0.18 0,0.25 -0.15,0.18 0,0.37 1.28,0.1 2.22,0.53 3.28,0.1 -4.1,-1.2 -8.45,-2.16 -12.84,-3.1 -0.18,0.24 -0.73,0.43 -0.55,0.75 z" />
  <path fill="#b5b5b5" d="m 90.47,79.38 c 0,-2.29 0,-5 0,-8.13 0.1,-7.61 0.22,-15.08 0.22,-15.15 0,-0.26 -0.18,-0.49 -0.43,-0.55 0,0 -0.1,0 -0.12,0 -0.22,0 -0.41,0.13 -0.49,0.33 l -1.33,2.82 c -0.38,-0.33 -0.9,-0.78 -1.43,-1.23 -1.96,-1.61 -2.61,-1.84 -2.98,-1.84 -0.1,0 -0.12,0 -0.18,0 -0.41,0.1 -0.49,0.51 -0.53,0.71 -0.37,1.78 -0.55,10.35 -0.53,17.48 0,4.2 0.1,7.84 0.2,10.57 0.1,1.23 0.14,2.27 0.21,3.07 2.73,-2.43 5.2,-5.13 7.35,-8.09 z" style="stroke-width:0.196" />
  <path fill="#ffffff" stroke="#ffffff" stroke-width="0.277791" stroke-miterlimit="10" d="m 19.93,21.25 c 6,-1.1 11.96,-0.55 18.51,-0.83 -6.37,-0.29 -13.43,-0.29 -19.5,0.36 -0.77,0.1 -1.77,-0.1 -2.28,0.54 1.12,0.51 2.42,-0.43 3.27,-0.1 z" />
</svg>
