<?xml version="1.0" encoding="UTF-8" standalone="no"?>
<svg version="1.1" width="100" height="100" viewBox="0 0 100 100" xmlns="http://www.w3.org/2000/svg">
  <circle fill="#005a5d" cx="50" cy="50" r="50" />
  <g transform="matrix(0.1972,0,0,0.1972,-0.3,-0.4)" >
    <path fill="#b5b5b5" d="m 169.2,370.2 c -19.4,-3.7 -39.5,0.6 -60.2,0.7 -5.1,0 -6,-0.4 -6.2,-0.6 -0.2,-0.3 -1,-2.1 -1.3,-14.2 -0.1,-7 -0.1,-16.6 0.2,-28.4 0.5,-20 1.3,-39.9 1.3,-40.1 0.1,-0.3 -0.2,-0.6 -0.5,-0.7 -0.4,-0.1 -0.7,0.1 -0.9,0.4 L 93.24,305 C 89.21,301.3 73.5,287.3 69.04,287.3 h -0.5 c -0.73,0.2 -1.16,1.1 -1.61,3.2 -1.61,7.9 -2.86,32.8 -2.91,58 0,12.9 0.27,24.2 0.86,32.6 0.95,13.5 2.39,16 3.38,16.8 20.32,4.5 44.44,0.8 69.34,0.1 h 2 c 0.1,0 0.3,0.1 0.6,0.4 4.3,5.4 0.5,45.2 -1.3,60.1 0,0.3 0.1,0.6 0.4,0.8 h 0.4 c 0.2,0 0.4,0 0.5,-0.2 1.1,-1.2 26.2,-29.5 29.3,-35.5 1.6,-3.3 3.3,-15.4 3.8,-27.1 0.3,-8.6 0.3,-23.4 -4.1,-26.3 z" />
    <path fill="#b5b5b5" d="m 113.1,249.4 c 0,-15.5 -2.9,-29.9 -23.74,-29.9 -1.52,0 -3.14,0.1 -4.82,0.2 -7.73,0.7 -14.86,4 -20.06,9.2 -5.38,5.5 -8.36,12.8 -8.38,20.5 0,9.9 2.5,17.5 7.49,22.5 4.81,4.8 11.88,7.3 21.02,7.3 15.69,0 28.49,-13.4 28.49,-29.8 z" />
  </g>
  <g transform="matrix(0.1972,0,0,0.1972,-0.3,-0.4)" >
    <path fill="#b5b5b5" d="m 439.6,287.3 c -0.6,-0.3 -1.5,-0.4 -2.7,-0.4 -4.9,0 -13.4,2.6 -19.7,5.1 -3.1,1.3 -13.4,5.5 -15.3,8.7 -1.4,2.5 -1,16.5 -0.1,37.7 0.5,13.2 1.1,29.5 0.2,31.2 -0.1,0.1 -0.8,0.4 -4.5,0.4 -4.1,0 -10,-0.4 -16.2,-0.9 -6.8,-0.5 -13.8,-1 -19,-1 -6,0 -7.5,0.7 -8.1,1.4 -0.4,0.4 -1.5,1.5 -2.1,12.2 -0.3,5.9 -0.5,13.9 -0.4,22.5 0.1,12.6 0.8,32.2 2.4,34.7 2.4,4 32.2,21.6 35.6,23.6 0.1,0 0.2,0.1 0.4,0.1 0.1,0 0.3,-0.1 0.4,-0.2 0.2,-0.1 0.4,-0.4 0.3,-0.7 -0.1,-0.5 -8.9,-53.9 -2.2,-63.2 0.5,-0.7 1,-1 1.6,-1.1 1.4,-0.2 3.2,-0.4 5.7,-0.4 4.8,0 11.1,0.5 17.2,0.9 6.2,0.4 12.6,0.8 17.5,0.8 5.2,0 8.1,-0.5 9.2,-1.5 0.5,-0.4 1.5,-1.4 2.5,-15 0.6,-7.9 1,-18.6 1.2,-30.3 0.4,-19.6 0.2,-46.7 -1.7,-58.6 -0.7,-4.7 -1.5,-5.7 -2.2,-6 z" />
    <path fill="#b5b5b5" d="m 397,272.4 c 5.2,4.2 12.3,6.6 20.7,7.1 1.4,0 2.6,0.1 3.9,0.1 10,0 16.2,-2.4 19.6,-7.4 3.1,-4.7 3.7,-11.3 3.7,-20.5 0,-8.9 -2.9,-17.3 -8.3,-23.6 -5.3,-6.2 -12.4,-9.9 -20.1,-10.3 -0.9,0 -1.8,0 -2.6,0 -22.8,0 -26,16.3 -26,33.9 0,8.8 3.1,15.8 9.1,20.7 z" />
  </g>
  <path fill="#ffffff" d="m 76,65.9 c -0.1,0 -0.1,-0.1 -0.1,-0.1 -3.4,-0.4 -7.2,-0.6 -11.6,-0.6 -18,0 -38.9,3.5 -39.1,3.5 0,0 -0.1,0.1 -0.1,0.2 l 0.1,2 c 0,0.1 0,0.1 0.1,0.1 0,0 0,0 0,0 0.1,0 0.1,0 0.1,0 2.8,-0.8 8.9,-1.5 16,-2 2.5,7.3 5.9,19.6 6,19.8 0,0 0,0.1 0.1,0.1 h 1.3 c 0,0 0,0 0,0 0.1,0 0.2,-0.1 0.2,-0.2 0,0 0,0 0,0 -0.6,-4.8 -4.8,-16.5 -6,-19.8 6.3,-0.4 13.2,-0.7 19,-0.9 -1.1,3.1 -5.5,15.8 -6.1,20.9 0,0.1 0,0.1 0.1,0.1 0,0.1 0,0.1 0.1,0.1 h 1.3 c 0.1,0 0.1,-0.1 0.1,-0.1 0.1,-0.2 3.6,-13.5 6.2,-21.1 6.8,-0.2 11.8,-0.3 12,-0.3 0,0 0.1,0 0.1,-0.1 L 76,66 c 0,0 0,-0.1 0,-0.1 z" style="stroke-width:0.1972" />
  <g>
    <path fill="#ffffff" d="M 46.2,8.3 C 45.5,7.1 45.1,6.732 43.5,5.6 36.8,1.5 31.1,6.5 29.3,8.4 c -2.6,2.6 -4.8,5.9 -6.4,8.9 -4.5,8 10.1,12.4 10.1,12.4 0.1,3.1 -1.9,9.8 -1.9,9.8 2,-1.5 8.3,-8.4 8.3,-8.4 10.2,1 9.7,-9.8 9.7,-9.8 0.1,-6.7 -1.2,-10.6 -2.9,-13 z" style="stroke-width:0.1972" />
    <path fill="#000000" d="m 37.9,25.31 c -0.5,1.5 -2.1,2.3 -3.6,1.8 -0.3,-0.1 -1.1,-0.5 -1.6,-1.4 -0.1,-0.4 -0.4,-1.2 -0.1,-2.2 0.5,-1.4 2.1,-2.2 3.5,-1.7 1.5,0.5 2.3,2 1.8,3.5 z m 6.5,-9 c -0.2,0.6 -1.2,3 -3.5,3.5 -0.8,0.2 -1.5,0.1 -1.8,0.1 l -0.5,1.5 -4.3,-1.5 1.5,-4.5 c 0.4,0.2 0.9,0.4 1.3,0.5 1.3,0.5 2.1,0.3 2.6,-0.3 0.1,-0.1 0.3,-0.3 0.5,-0.7 0.2,-0.9 -0.1,-1.7 -1,-2 -0.3,-0.1 -0.6,-0.1 -0.9,-0.1 -0.9,0.2 -1.1,1.1 -1.2,1.4 l -4.3,-1.5 c 0.1,-0.3 0.3,-0.9 0.8,-1.5 0.3,-0.6 1.3,-1.799 3.1,-2.299 1.8,-0.4 3.3,0.1 3.9,0.3 0.8,0.3 1.6,0.6 2.2,1.099 1.8,1.5 2.3,3.8 1.6,6 z" style="stroke-width:0.1972" />
  </g>
  <g>
    <path fill="#ffffff" d="m 55.36,10.85 c -1.7,0.17 -3.3,0.75 -4.8,1.87 -1.9,1.35 -7,5.03 -3.7,18.78 0,0 1.9,11.3 12.3,7.88 0,0 8.2,5.72 10.7,6.81 0,0 -3.8,-6.43 -4.3,-9.76 0,0 14.1,-7.89 7.7,-15.19 -5.07,-6.38 -11.5,-10.56 -17.9,-10.39 z" style="stroke-width:0.1972" />
    <path fill="#000000" d="m 56.27,10.8 c -1.67,-0.11 -2.5,2 -2.52,3.18 -0,1.52 0.77,3.05 1.74,4.23 -0.95,0.22 -1.74,0.67 -2.29,1.32 -0.77,0.88 -1.08,2.11 -0.93,3.55 0.26,2.07 2.09,3.8 3.85,5.48 1.1,1.04 2.15,2.05 2.6,2.96 0.32,0.63 0.36,1.28 0.12,1.81 -0.2,0.44 -0.55,0.73 -1.02,0.87 -0.14,0.1 -0.36,0.1 -0.6,0.1 -0.82,0 -1.42,-0.24 -1.53,-0.38 0,-0.1 0.1,-0.1 0.17,-0.19 0.24,-0.28 0.61,-0.69 0.71,-1.34 0.1,-0.97 -0.41,-1.9 -1.18,-2.11 -0.95,-0.28 -1.77,0 -2.25,0.76 -0.53,0.79 -0.57,2.02 -0.1,2.96 0.67,1.38 2.17,2.21 3.97,2.21 2.34,0 4.89,-1.5 4.89,-4.3 0,-1.89 -0.83,-2.84 -1.6,-3.67 -0.1,-0.1 -0.12,-0.13 -0.22,-0.23 0.91,-0.16 1.68,-0.55 2.25,-1.21 0.81,-0.86 1.2,-2.09 1.09,-3.45 -0.18,-2.34 -2.13,-4.13 -3.85,-5.7 -1.34,-1.23 -2.62,-2.39 -2.86,-3.6 -0.24,-1.09 0.36,-1.94 1.03,-2.11 0.13,-0.1 0.31,-0.1 0.49,-0.1 0.73,0 1.3,0.24 1.3,0.44 0,0.11 -0.1,0.21 -0.26,0.43 -0.31,0.34 -0.76,0.86 -0.63,1.75 0.14,0.94 1.07,1.43 1.92,1.43 0.39,0 0.76,-0.11 1.08,-0.31 0.81,-0.52 0.97,-1.7 0.81,-2.64 -0,-0.22 -0.1,-0.42 -0.16,-0.61 -2.07,-1.36 -2.84,-1.57 -6.02,-1.53 z m 0.1,9.13 h 0.15 c 0.89,0.2 3.02,2.51 3.51,3.81 0.22,0.61 0.16,1.3 -0.15,1.79 -0.26,0.38 -0.62,0.63 -1.03,0.63 -0.85,0.1 -1.68,-0.77 -2.46,-1.63 l -0.3,-0.36 c -0.69,-0.73 -1.26,-1.38 -1.44,-2.25 -0.12,-0.53 -0,-0.98 0.2,-1.34 v 0.1 c 0.21,-0.33 0.57,-0.51 1.02,-0.61 0.18,-0.1 0.36,-0.1 0.5,-0.1 z" style="stroke-width:0.1972" />
  </g>
</svg>
