<?xml version="1.0" encoding="UTF-8" standalone="no"?>
<svg version="1.1" width="100" height="100" viewBox="0 0 100 100" xmlns="http://www.w3.org/2000/svg">
  <circle fill="#005a5d" cx="50" cy="50" r="50" />
  <polygon fill="#ffffff" points="362.6,438.5 315.9,438.5 171.6,330.4 184,330.4 " transform="scale(0.196)" />
  <polyline fill="#ffffff" points="321.083,478.521 321.083,438.515 315.897,438.515 318.493,478.521" transform="scale(0.196)" />
  <polyline fill="#ffffff" points="357.387,467.314 357.387,438.515 362.57,438.515 360.751,466.553" transform="scale(0.196)" />
  <polyline fill="#ffffff" points="318.493,438.515 358.499,438.515 358.499,443.697 318.493,441.105" transform="scale(0.196)" />
  <polyline fill="#ffffff" points="173.04,341.309 173.04,330.354 171.621,330.354 172.329,341.309" transform="scale(0.196)" />
  <polyline fill="#ffffff" points="182.977,338.24 182.977,330.354 184.4,330.354 183.9,338.031" transform="scale(0.196)" />
  <polygon points="156.5,72.88 208.1,96.87 212,135 167.3,188.1 126.5,182.1 95.93,106.2 109.1,68.38 110.3,68.98 " transform="scale(0.196)" />
  <polygon points="353.7,63.55 369.4,118.2 343.2,146.2 273.8,147.2 251.6,112.5 288.8,39.65 326,24.82 326.3,26.12 " transform="scale(0.196)" />
  <path fill="#ffffff" d="m 18.8,32.3 c 0,0 3.3,10.8 13,6.2 0,0 8.8,4.5 11.4,5.3 0,0 -4.5,-5.9 -5.5,-9 0,0 12.9,-9.6 5.7,-16 -2.8,-2.4 -6.2,-4.8 -9.7,-6.4 -2.5,-1.3 -9.8,-4.2 -15.1,2.3 -1.4,1.6 -1.4,2.2 -1.7,3.6 -0.8,2.9 -0.7,7.3 1.9,14 z M 23,20.6 c -0.2,-0.3 -0.3,-0.5 -0.2,-0.8 0.9,-1.9 2.3,-3.5 5.2,-4.2 4.4,-1.1 9.1,2 10.8,6.2 0.9,2.1 0.8,4.2 0.1,6 -1.4,3.7 -6.5,7.7 -11,6 C 23.6,32.2 20.5,24.6 23,20.6 Z" style="stroke-width:0.196" />
  <path fill="#ffffff" d="m 24.7,19.3 c -2.7,3.5 -1.7,11.6 3.2,12.9 4.2,1.2 9.7,-3.1 9.7,-7.2 0,-4.3 -3,-7.2 -5.7,-8.1 -0.5,-0.2 -1.3,-0.3 -1.9,-0.3 -2,0 -4.3,1.5 -5.3,2.7 z m 3.3,3.4 c -1.4,0.7 -2.2,-1.7 -1.2,-2.1 1,-0.5 2.1,1.1 1.2,2.1 z m 3.9,-0.5 c -1,-0.1 -0.8,-1.8 -0.4,-2.5 2.1,-0.8 2.3,2.8 0.4,2.5 z m -4.7,4.4 c 1.2,-1.7 5.5,-1.8 6.8,-0.4 0.5,0.4 1,1.6 0.2,2 -0.4,-0.2 -0.3,-0.8 -0.5,-1 -1,-1.2 -5,-1.1 -5.5,0.5 -0.2,0.6 0.3,1.3 -0.6,1.3 -0.9,0.1 -0.7,-1.9 -0.4,-2.4 z" style="stroke-width:0.196" />
  <g transform="scale(0.196)">
    <path fill="#ffffff" d="M 382,106 C 377.8,89.05 371.4,70.05 362.1,54.22 355.8,42.4 334.9,10.77 296.6,21.8 c -9.9,2.85 -11.9,4.87 -16.8,9.79 -10.9,9.23 -22.7,26.53 -30.9,59.67 0,0 -16.6,51.74 34.3,60.04 0,0 21.8,41.8 29.8,51.9 0,0 -1.4,-35.1 3.4,-50.3 0,0 76.8,-2.2 65.6,-46.9 z M 299.9,91.59 c 2.1,-1.47 4.3,-4.74 4.9,-7.22 0.1,-0.64 0.1,-7.4 2.3,-4.67 -0.9,2.32 1,4 2.7,5.12 3.4,2.19 4.6,4.7 4.2,8.97 4.6,-5.46 0.3,-11.95 -3,-16.57 -12.7,-15.69 10,-30.21 22.7,-25.54 5.8,2.41 9.9,7.66 10.4,14.04 0.6,7.25 -5.1,13.12 -7.5,19.41 -1.1,2.96 -1.6,6.14 -3,9 -1.8,3.73 -5.4,4.18 -8.3,6.77 -2.8,2.6 -12.3,9.9 -15.8,9.6 6.7,-5.9 15.4,-10.1 20.4,-17.64 2.4,-3.5 2,-5.79 5.4,-8.64 2.9,-2.45 4.8,-7.47 6.1,-11.05 2.9,-8.24 1.4,-14.76 -6.9,-18.09 -3.9,-1.54 -13.6,-4.7 -16.6,-0.5 -1.5,2.13 -1.2,5.01 -2.6,7.06 -1.1,1.66 -3.5,1.42 -5.4,1.64 -3.2,2.97 5.3,9.77 7.1,11.89 3.8,4.26 6.4,14.18 1.4,18.64 -1.8,1.68 -4.3,2.37 -6.5,3.59 -2,-0.54 -5.3,-0.33 -6.6,1.63 -0.8,1.17 -0.6,2.37 -1.3,3.47 -1.1,1.9 -3.2,2.1 -4.6,3.3 -3.4,2.9 -8.4,-0.8 -8.5,-4.6 -0.3,-5.28 5.6,-7.18 9,-9.61 z m 47.8,-7.5 c -2.8,9.97 -7,20.51 -14.8,27.71 -6.4,5.9 -19.1,5.7 -23.7,13.1 -4.4,7.1 -10.3,12.2 -18.9,12.1 -10.7,-0.2 -19.2,-11.4 -21,-20.9 -0.5,-2.9 4.4,-28.51 8.2,-26.1 -0.5,0.65 -1.2,3.52 -1.6,3.58 -0.2,2.28 -2.3,14.62 -4.1,15.62 -1.8,1.1 0.3,10.2 0.9,12 -0.2,0 3.9,6.4 3.9,6.6 6.6,5.1 11.2,7 19.3,4.3 5.1,-1.7 9,-6 11.9,-10.4 3.8,-5.8 14.6,-7.3 20.4,-10.9 1.4,-2.7 4.8,-5.3 6.8,-7.6 2.9,-3.4 5.5,-7.24 7.3,-11.36 3,-6.88 3.3,-14.34 6.2,-21.25 3,-6.96 0.7,-14.89 -4.6,-20.13 -7.1,-6.99 -18.2,-10.26 -27.9,-8.07 -3.8,0.86 -8.3,2.95 -11.5,5.13 -2.7,1.87 -6,7.42 -9.3,7.88 0.3,-2.26 2.8,-3.25 4.2,-5.41 0.1,0.1 0.1,0.19 0.2,0.24 10,-18.15 39.8,-11.86 48.9,3.52 6.4,10.75 2.3,19.46 -0.8,30.34 z" />
    <path d="m 277.1,94.14 c 0.3,-0.39 0.5,-0.95 0.8,-1.7 0.1,-0.52 0.5,-1.4 0.6,-1.6 l 1,-1.13 -1.3,-0.78 c -1.1,-0.68 -2.4,-0.38 -3.4,0.9 -3.8,4.58 -7.3,23.77 -6.7,26.47 1.9,10.5 11,21.8 22.2,21.9 h 0.3 c 7.9,0 14.4,-4.1 19.7,-12.6 2.3,-3.7 7,-5.4 12,-7.1 4.2,-1.5 8.4,-2.9 11.4,-5.7 8.8,-8.1 12.9,-20.05 15.2,-28.36 0.5,-1.44 0.9,-2.84 1.3,-4.21 2.7,-8.9 5.3,-17.32 -0.6,-27.13 -5.3,-8.96 -17.4,-15.21 -29.4,-15.21 -9.3,0 -16.7,3.74 -21,10.57 -1.6,1.56 -2,1.99 -2.7,2.8 -1.1,1.03 -2.3,2.19 -2.5,4.01 l -0.2,1.63 1.6,-0.23 c 2.5,-0.36 4.7,-2.77 6.8,-5.11 1.1,-1.21 2.2,-2.37 3.1,-2.98 3.2,-2.22 7.5,-4.16 11,-4.94 1.8,-0.43 3.8,-0.64 5.9,-0.64 7.7,0 15.5,3.13 20.8,8.37 5.3,5.18 7,12.54 4.3,18.73 -1.5,3.54 -2.3,7.23 -3.1,10.8 -0.8,3.65 -1.6,7.1 -3.1,10.45 -1.6,3.7 -3.9,7.4 -7,11.05 l -2.4,2.4 c -1.7,1.6 -3.4,3.3 -4.4,5.1 -2,1.2 -4.6,2.1 -7.3,3.1 -5.2,2 -10.6,3.9 -13.3,8 -3.3,5.2 -7.1,8.5 -11.2,9.9 -2.4,0.8 -4.4,1.2 -6.2,1.2 -4.2,0 -7.6,-2 -11.7,-5.2 -0.2,-0.2 -0.4,-0.6 -0.8,-1.3 -0.8,-1.2 -2.5,-4.1 -2.9,-4.8 v 0 c -0.9,-2.6 -2,-9.3 -1.3,-10.5 2.3,-1.7 4.2,-13.72 4.5,-16.16 z m 38.6,-52.99 c -3.5,0.8 -7.9,2.72 -11.3,4.95 5.1,-4.82 11.8,-5.67 15.8,-5.67 h 1.1 c -1.9,0.1 -3.8,0.29 -5.6,0.7 z m -19.4,92.15 c 4.6,-1.6 8.9,-5.2 12.6,-10.9 2.2,-3.4 7.2,-5.2 12,-7 3,-1.1 5.8,-2.1 8,-3.5 l 0.3,-0.2 0.1,-0.3 c 0.9,-1.6 2.5,-3.2 4.1,-4.8 1,-0.9 1.8,-1.7 2.6,-2.6 3.3,-3.8 5.8,-7.71 7.5,-11.65 1.5,-3.57 2.4,-7.29 3.2,-10.89 0.8,-3.46 1.6,-7.04 3,-10.37 0.2,-0.63 0.5,-1.27 0.7,-1.92 -0.5,3.29 -1.5,6.65 -2.6,10.32 -0.5,1.38 -0.9,2.79 -1.3,4.25 -2.3,8.01 -6.2,19.56 -14.5,27.16 -2.6,2.4 -6.6,3.8 -10.5,5.2 -5.2,1.8 -10.6,3.6 -13.4,8.2 -4.8,7.6 -10.5,11.4 -17.5,11.4 h -0.3 c -3.4,-0.1 -6.7,-1.4 -9.6,-3.5 4.6,2.6 9.2,3.3 15.6,1.1 z m -24.5,-26.4 c 0.5,-2.8 1.3,-5.7 2,-8.36 -0.6,3.06 -1.4,6.46 -2,8.36 z" />
    <path d="m 308.6,79.48 -0.5,-0.58 c -0.2,-0.28 -0.9,-1.12 -1.9,-1.12 -2.2,0 -2.4,3.31 -2.6,5.72 0,0.29 0,0.51 -0.1,0.58 -0.5,2.17 -2.5,5.19 -4.3,6.47 -0.7,0.49 -1.6,0.98 -2.4,1.49 -3.3,1.92 -7.4,4.31 -7.2,9.16 0.2,3.6 3.5,6.9 7,6.9 1.3,0 2.6,-0.5 3.7,-1.4 0.4,-0.3 0.9,-0.6 1.5,-0.8 1.1,-0.6 2.4,-1.3 3.3,-2.8 0.4,-0.7 0.6,-1.3 0.7,-1.9 0.2,-0.6 0.3,-1 0.6,-1.46 0.5,-0.83 1.8,-1.32 3.4,-1.32 0.6,0 1.2,0.1 1.8,0.21 l 0.5,0.13 0.4,-0.25 c 0.7,-0.39 1.5,-0.73 2.3,-1.09 1.5,-0.7 3.1,-1.43 4.5,-2.66 5.4,-4.84 3.1,-14.92 -0.9,-19.93 0,-1.41 -1.6,-2.96 -3.9,-5.09 -1.5,-1.42 -3.8,-3.62 -4.5,-5.07 0.1,0 0.2,-0.1 0.3,-0.15 0.3,0 0.6,0 0.8,-0.1 1.8,-0.11 4,-0.25 5.3,-2.09 0.8,-1.21 1.1,-2.57 1.4,-3.88 0.3,-1.18 0.6,-2.29 1.2,-3.17 0.7,-1.03 2.2,-1.56 4.3,-1.56 4.1,0 9.3,1.92 10.7,2.51 7.1,2.83 9.1,8.22 6.2,16.48 -1.1,2.85 -2.9,8.15 -5.7,10.5 -2.3,1.95 -3.1,3.68 -3.9,5.52 -0.4,1.05 -0.9,2.14 -1.7,3.38 -3.2,4.81 -8.1,8.39 -12.8,11.79 -2.5,1.8 -5.1,3.6 -7.4,5.6 l -2.2,2 2.9,0.3 h 0.4 c 4.5,0 14.5,-8.3 16.3,-9.9 1,-0.9 2.1,-1.5 3.2,-2.22 2,-1.15 4.1,-2.34 5.4,-5.03 0.9,-1.8 1.5,-3.71 2,-5.55 0.4,-1.24 0.7,-2.41 1.1,-3.56 0.8,-2.01 1.9,-3.97 3.1,-6.05 2.4,-4.27 4.9,-8.69 4.5,-13.91 -0.5,-6.68 -4.8,-12.47 -11.2,-15.12 -2.3,-0.93 -4.8,-1.41 -7.5,-1.41 -9.3,0 -18,5.63 -20.6,13.38 -2.1,6.4 0.5,10.8 3.8,15.49 2.5,3.52 4.9,7.16 4.8,10.56 -0.7,-1.88 -2.1,-3.39 -4.2,-4.76 -2.5,-1.67 -2.5,-2.75 -2.2,-3.58 z m 25.6,8.95 c -0.5,1.82 -1,3.53 -1.8,5.13 -0.9,1.99 -2.5,2.9 -4.3,3.95 -0.2,0.1 -0.4,0.18 -0.5,0.28 1.2,-1.3 2.4,-2.69 3.4,-4.22 1,-1.44 1.5,-2.69 2,-3.79 0.5,-1.21 0.9,-2.23 1.8,-3.29 -0.2,0.65 -0.4,1.3 -0.6,1.94 z m -1,-35.57 c 1,0.41 1.9,0.9 2.8,1.47 -0.3,-0.15 -0.7,-0.29 -1,-0.43 -1.4,-0.56 -4.3,-1.64 -7.5,-2.24 2,0.1 3.9,0.48 5.7,1.2 z m -16.6,1.41 c -0.7,1.18 -1,2.48 -1.3,3.64 -0.2,1.13 -0.5,2.2 -1,3.01 -0.6,0.77 -1.7,0.89 -3.3,1 -6.5,1.7 4.8,-6.96 5.6,-7.58 z M 312,76.48 c -2.9,-4.05 -4.4,-6.95 -4.1,-10.4 1,1.81 3,3.68 4.9,5.51 1,1.02 2.6,2.52 3,3.2 l -0.3,0.53 0.6,0.69 c 3.5,4.01 5.7,13.06 1.5,16.85 -0.7,0.63 -1.5,1.11 -2.4,1.55 5.1,-6.37 -0.3,-13.88 -3.2,-17.93 z m -2.9,9.41 c 3,1.94 4,4.05 3.7,7.78 l -0.2,1.94 c -0.3,0.14 -0.6,0.28 -0.9,0.44 -0.6,-0.12 -1.2,-0.18 -1.9,-0.18 -2.5,0 -4.5,0.89 -5.6,2.44 -0.5,0.81 -0.7,1.58 -0.9,2.29 -0.1,0.5 -0.2,0.9 -0.4,1.2 -0.5,0.9 -1.3,1.3 -2.3,1.8 -0.6,0.3 -1.4,0.7 -2,1.2 -0.6,0.5 -1.3,0.8 -2,0.8 -2.1,0 -4.4,-2.3 -4.5,-4.5 -0.1,-3.32 2.8,-5.04 6,-6.86 0.9,-0.54 1.8,-1.05 2.6,-1.61 2.3,-1.62 4.7,-5.2 5.3,-7.98 0.1,-0.2 0.1,-0.43 0.1,-0.97 0,-0.23 0.1,-0.44 0.1,-0.65 0.6,1 1.5,1.95 2.9,2.86 z" />
  </g>
  <g transform="scale(0.196)">
    <path fill="#b5b5b5" d="m 342.6,309.1 c -0.7,-0.3 -1.5,-0.5 -2.7,-0.5 -4.8,0 -13.3,2.7 -19.6,5.1 -3.1,1.2 -13.2,5.4 -15.1,8.6 -1.4,2.5 -1,16.4 -0.1,37.4 0.5,13.1 1.1,29.3 0.2,30.9 -0.1,0.1 -0.8,0.5 -4.5,0.5 -4,0 -9.9,-0.5 -16.1,-0.9 -6.7,-0.5 -13.6,-1.1 -18.7,-1.1 -6.1,0 -7.5,0.8 -8.2,1.4 -0.3,0.4 -1.4,1.5 -2,12.1 -0.3,5.9 -0.5,13.8 -0.4,22.4 0.1,12.4 0.8,31.9 2.3,34.4 2.5,3.9 32,21.3 35.4,23.3 0.1,0.1 0.2,0.1 0.3,0.1 0.2,0 0.3,0 0.5,-0.1 0.2,-0.2 0.3,-0.5 0.3,-0.8 -0.1,-0.5 -8.8,-53.4 -2.2,-62.6 0.5,-0.7 1,-1 1.6,-1.1 1.3,-0.2 3.2,-0.4 5.7,-0.4 4.7,0 11,0.5 17,0.9 6.1,0.4 12.5,0.8 17.3,0.8 5.2,0 8,-0.5 9.2,-1.5 0.4,-0.4 1.5,-1.4 2.4,-14.8 0.6,-7.9 1,-18.6 1.3,-30.1 0.3,-19.4 0.1,-46.3 -1.7,-58.1 -0.8,-4.7 -1.5,-5.6 -2.2,-5.9 z" />
    <path fill="#b5b5b5" d="m 300.3,294.2 c 5.1,4.2 12.2,6.6 20.6,7.1 1.3,0 2.6,0.1 3.8,0.1 9.9,0 16.1,-2.4 19.4,-7.4 3.1,-4.6 3.7,-11.1 3.7,-20.2 0,-8.9 -2.9,-17.2 -8.2,-23.5 -5.3,-6.1 -12.4,-9.7 -20,-10.1 -0.9,-0.1 -1.7,-0.1 -2.6,-0.1 -22.6,0 -25.7,16.2 -25.7,33.7 0,8.7 3,15.6 9,20.4 z" />
  </g>
  <g transform="scale(0.196)">
    <path fill="#b5b5b5" d="m 190,346.5 c 1.2,-1.1 4.2,-1.5 9.4,-1.5 5.8,0 13.3,0.6 20.6,1.2 6.4,0.5 12.4,1 16.5,1 4,0 4.7,-0.5 4.8,-0.6 0.2,-0.3 0.8,-2.1 1,-14.1 0.1,-7 0.1,-16.4 -0.1,-28.1 -0.4,-19.9 -1.1,-39.6 -1.1,-39.8 0,-0.3 0.2,-0.7 0.5,-0.7 0.2,-0.1 0.5,0 0.6,0.4 l 6.5,17.5 c 3.1,-3.6 15.3,-17.6 18.7,-17.6 0.2,0 0.3,0.1 0.4,0.1 0.6,0.2 0.9,1 1.3,3.2 1.2,7.8 2.2,32.5 2.2,57.4 0,12.9 -0.2,24.1 -0.7,32.4 -0.7,13.4 -1.8,15.9 -2.6,16.6 -0.9,0.9 -3.4,2.1 -13.8,2.1 -8.1,0 -18.3,-0.7 -26.6,-1.3 -5.6,-0.4 -10.6,-0.7 -13.2,-0.7 -0.7,0 -1.2,0 -1.5,0.1 -0.1,0 -0.3,0 -0.5,0.4 -3.4,5.3 -0.4,44.8 1,59.5 0,0.4 -0.1,0.7 -0.4,0.8 0,0 -0.1,0.1 -0.2,0.1 -0.2,0 -0.3,-0.1 -0.4,-0.3 -0.9,-1.2 -20.3,-29.2 -22.7,-35.2 -1.2,-3.2 -2.5,-15.3 -2.9,-26.9 -0.3,-8.5 -0.3,-23.2 3.2,-26 z" />
    <path fill="#b5b5b5" d="m 233.3,226.7 c 0,-15.4 2.3,-29.7 18.4,-29.7 1.2,0 2.4,0.1 3.7,0.3 6,0.7 11.5,3.9 15.6,9.1 4.1,5.4 6.4,12.6 6.4,20.3 0.1,9.9 -1.9,17.4 -5.7,22.3 -3.8,4.8 -9.2,7.2 -16.3,7.2 -12.2,0 -22.1,-13.2 -22.1,-29.5 z" />
  </g>
</svg>
