<?xml version="1.0" encoding="UTF-8" standalone="no"?>
<svg version="1.1" width="100" height="100" viewBox="0 0 100 100" xmlns="http://www.w3.org/2000/svg">
  <circle fill="#005a5d" cx="50" cy="50" r="50" />
  <path fill="#b5b5b5" d="m 37,95.5 c 0.2,0.1 0.4,0.1 0.5,0.1 -0.1,0 -0.3,0 -0.5,-0.1 -0.3,-7.12 0,-17.65 -0.8,-21.5 -0.5,-0.7 -4.5,-2.2 -5.3,-1.8 -0.2,0 -0.3,1 -0.4,2.5 -0.72,0.91 -1.24,1.89 -1.6,2.9 -0.3,-0.1 -0.6,-0.2 -1,-0.4 -0.1,-0.5 -0.3,-1 -0.6,-1.2 -0.5,-0.3 -0.9,0 -1.5,0.1 -0.99,-0.1 -1.98,-0.27 -2.8,-0.2 v 0 0 C 22.68,71.34 21.73,66.91 21.1,62.6 v -5.2 c 0.2,-0.1 0.4,-0.2 0.7,-0.3 -0.5,-1 -0.6,-2.6 -0.5,-4.4 0.2,-3.8 1.2,-8.4 1,-10.8 -0.2,-3.7 -2.2,-6.5 -4.9,-7.5 -4.8,-1.9 -9.1,2.4 -9.7,7 -0.4,3.7 2.1,12.7 0.3,15.9 0.2,0.1 0.5,0.3 0.8,0.6 -0.4,2.6 -0.8,5.3 -1.9,7.9 -0.1,0.3 -0.1,0.5 -0.1,0.8 0.932,0.41 1.925,0.76 2.8,1.3 0,0.8 0,1.6 -0.3,2.6 -0.2,1 -0.4,1.7 -0.6,2.3 -0.3,1.4 -0.5,2.1 -0.6,3.1 v 1.4 c 3.3,5.1 7.5,9.5 12.4,13.1 0.1,-1 0.1,-2.1 0.2,-3.3 0.1,-3.5 0.1,-7.7 -0.2,-12.3 -0.1,-1.3 -0.1,-3.6 -0.1,-7.1 0,-1.2 0.1,-2.1 0.3,-2.8 0.5,1.8 1.2,4.9 1.6,9.6 0,0.7 0,1.38 0.1,2 1.05,0 2.06,0.1 3.1,0.1 0.5,0.3 1.1,0.8 1.6,1.2 0.3,0.2 0.6,0.9 1.1,0.6 0,-0.3 -0.2,-0.4 -0.3,-0.6 v 0 c 0.6,0.2 1,0.4 1,0.4 l 0.3,0.2 0.1,-0.3 c 0.26,-0.89 0.69,-1.64 1.2,-2.5 -0.2,4.7 -0.1,13 0.2,17.6 -0.1,0 -0.1,0 -0.2,-0.1 0.1,0.1 0.1,0.1 0.2,0.1 0,1.4 0.1,2.5 0.2,3 0.8,0.3 1.5,0.6 2.3,0.9 1.1,0 2.5,-0.3 3.7,-1 0,0 0.1,-0.2 0.1,-0.6 z M 7.8,66.2 v 0 0 C 7.5,65.7 8,64.6 8.2,64 8.746,62.32 8.947,60.5 9.3,58.9 9.2,59.8 9.1,60.8 9,62.1 9,64.2 9.3,65.6 9.5,66.9 8.89,66.68 8.276,66.42 7.8,66.2 Z M 16.3,49 c -4,1 -5.9,-2.7 -5.2,-6.8 3.1,-0.1 5.9,-0.5 6.9,-2.8 0.11,0.1 0.13,0.13 0.2,0.2 2.2,2.5 1.6,8.5 -1.9,9.4 z" style="stroke-width:0.196" />
  <path fill="#b5b5b5" d="m 33.3,62.1 c -3.6,-0.1 -4.1,2.2 -4.1,4.8 0,2.7 2,3.8 4.3,3.9 3.5,0.2 3.8,-1.2 3.8,-3.9 0,-2.6 -1.8,-4.7 -4,-4.8 z" style="stroke-width:0.196" />
  <path fill="#b5b5b5" d="m 57.1,85.2 c 1.8,-0.8 3.1,-3.4 3.1,-6.4 0,-2.6 -0.9,-4.8 -2.2,-5.9 l 0.1,-0.1 c -0.4,-0.7 -0.7,-1.4 -1.4,-1.7 h -0.2 c 0.1,0.3 0.1,0.7 0.1,1 h -0.1 c -2.13,-0.16 -5.25,0.31 -7.3,0.6 -0.75,-3.11 -1.82,-6.45 -2.8,-9.1 0.1,-0.6 0.2,-1.1 0.2,-1.3 0.5,1.8 1.2,3.4 1.9,5.3 0.46,1.5 0.85,3.63 1.4,4.3 v 0 0 c 0.77,0.1 4.62,-0.52 6.6,-0.9 -0.2,-4.1 -0.4,-7.4 -0.6,-8.8 -0,-0.24 -0.1,-0.57 -0.2,-0.8 -0.9,-1.3 -8.2,-4 -9.6,-3.3 -0.5,0.2 -0.7,1.6 -0.8,9 0,1 1.4,5.6 1.1,7.7 -0.5,3.3 -1.1,6.8 -1.1,7.8 0.1,5.9 0.2,10.9 0.4,14.3 h -0.1 0.1 c 0,1.1 0.1,2.1 0.2,2.9 1.3,0.1 2.7,0.2 4.1,0.2 2.5,0 4.9,-0.2 7.3,-0.5 v -3 c 0,-3 -0.1,-7 -0.2,-11.3 z" style="stroke-width:0.196" />
  <path fill="#b5b5b5" d="m 50.4,40.4 c -6.4,-0.3 -7.3,3.9 -7.3,8.7 0,4.8 3.6,6.8 7.7,7.1 6.3,0.3 6.9,-2.3 6.9,-7.1 0,-4.8 -3.3,-8.5 -7.3,-8.7 z" style="stroke-width:0.196" />
  <path fill="#b5b5b5" d="m 96.6,55.4 c -0.1,-0.1 -0.3,-0.1 -0.4,-0.1 -1.9,0 -7,2.2 -7.7,3.3 -0.1,0.2 -0.1,0.3 -0.1,0.6 -0.2,2.3 -0.3,10.3 -0.2,17.9 0,1.7 0.1,3.4 0.1,5 4.2,-5 7.4,-10.7 9.4,-17 -0.3,-5.5 -0.7,-9.6 -1.1,-9.7 z" style="stroke-width:0.196" />
  <path fill="#b5b5b5" d="m 98.6,46.8 c -0.2,-3.3 -0.8,-6.1 -3.7,-7 -0.8,-0.2 -1.7,-0.3 -2.9,-0.2 -3.4,0.3 -6,3.6 -5.9,7.7 0.2,4.1 0.8,6.3 6.2,5.8 1.4,-0.2 2.8,-0.6 3.9,-1.3 1.5,-1 2.5,-2.6 2.4,-5 z" style="stroke-width:0.196" />
  <path fill="#ffffff" d="M 50 0 C 49.28 0 48.54 0.0209 47.8 0.05664 A 50.1 50.1 0 0 0 45.71 0.207 C 45.41 0.2361 45.1 0.2655 44.8 0.3008 C 44.66 0.2977 44.63 0.2961 44.5 0.293 A 50.1 50.1 0 0 0 24.4 7.041 C 24.27 7.131 24.14 7.207 24 7.301 C 23.84 7.711 23.53 8.093 23.3 8.5 C 22.5 10 22.2 11.4 22.4 12.6 C 22.6 13.8 23.2 14.9 24 15.9 C 27.3 20.1 34.6 22.2 34.6 22.2 C 34.7 23 34.6 23.9 34.4 25 C 34.3 25.9 34 27 33.8 28 C 33.2 30.7 32.4 33.1 32.4 33.1 C 32.9 32.8 33.5 32.3 34.2 31.6 C 35.2 30.7 36.3 29.5 37.5 28.4 C 39.7 26 41.8 23.8 41.8 23.8 C 43.3 24 44.7 23.9 45.8 23.6 C 46.2 24.4 46.8 25 47.6 25.5 C 50.6 27.6 55.9 27.6 55.9 27.6 C 56.1 28.3 56.3 29.2 56.4 30.1 C 56.6 32.6 56.6 35.4 56.6 35.4 C 57.2 34.5 58.4 32.3 59.4 30.4 C 60.3 28.7 61 27.3 61 27.3 C 62.9 26.9 64.2 26.1 65.1 25.2 C 67.6 22.4 66.1 17.9 66.1 17.9 C 66 17.4 65.8 17 65.7 16.5 C 64.3 12.3 62.7 10.1 61.1 8.801 C 60.3 8.101 60 7.8 58.5 7.4 C 55.9 6.7 53.9 7.199 52.4 8.199 C 52.2 6.499 52 5.101 51.6 3.801 C 51.3 2.301 50.8 1 50.2 0 L 50 0 z " />
  <g>
    <path d="m 36.1,19.3 c 1.6,0.6 3.4,-0.3 4,-2 0.5,-1.6 -0.4,-3.3 -2,-3.9 -1.6,-0.5 -3.4,0.3 -4,2 -0.3,1 0.1,2 0.2,2.3 0.5,1.1 1.4,1.5 1.8,1.6 z" style="stroke-width:0.196" />
    <path d="m 39.1,4.9 c 0.1,0 0.1,0 0.2,0 0.1,-0.4 0.4,-1.2 1.2,-1.4 0.4,-0.1 0.7,0 1.1,0.1 0.4,0.1 0.7,0.4 0.9,0.7 0,0 0.1,-0.1 0.1,-0.1 0,0 0,0 0,0 0,0 0,0 0,0 0,0 0,0 0,0 0,0 -0.1,0.1 -0.1,0.1 0,0 0,0 0,0 0,0 0.1,-0.1 0.1,-0.1 0,0 0,0 0,0 0,0 0,0 0,0 0,0 0,0 0,0 0,0 -0.1,0.1 -0.1,0.1 0.1,0.2 0.2,0.5 0.2,0.8 0,0.2 0,0.4 -0.1,0.6 C 42.4,6.2 42.2,6.4 42.1,6.6 41.6,7.2 40.7,7.5 39.2,7 38.7,6.8 38.2,6.6 37.7,6.4 l -1.6,5 4.8,1.6 0.5,-1.7 c 0.4,0 1.1,0.2 2,-0.1 C 46,10.6 47,8 47.3,7.3 c 0.2,-0.7 0.3,-1.5 0.3,-2.2 0,-0.5 0,-0.9 -0.1,-1.3 -0.3,0 -0.5,0 -0.8,0 0.2,0 0.4,0 0.6,0 -0.2,0 -0.4,0 -0.6,0 0.3,0 0.5,0 0.8,0 -0.3,-1.2 -0.9,-2.3 -2,-3.1 -0.2,-0.1 -0.4,-0.3 -0.7,-0.4 -3.4,0.3 -6.8,1 -10,2 -0.2,0.5 -0.3,0.8 -0.4,1 z" style="stroke-width:0.196" />
  </g>
  <g>
    <path d="m 57,20.2 c -1,0 -1.9,0.9 -1.9,1.9 0,0.7 0.4,1.2 0.6,1.4 0.5,0.5 1.1,0.5 1.4,0.5 1,0 1.9,-0.8 1.9,-1.9 0,-1.1 -0.9,-1.9 -2,-1.9 z" style="stroke-width:0.196" />
    <path d="m 56.4,13.9 c 0.2,-0.1 0.4,-0.2 0.7,-0.2 0.6,0 1,0.4 1,1.1 0,0.3 0,0.5 -0.1,0.6 -0.2,0.4 -0.7,0.8 -1.6,0.8 -0.4,0 -0.7,0 -1,-0.1 v 3.3 h 3.2 l -0.1,-1.1 c 0.3,-0.1 0.7,-0.1 1.2,-0.5 1.4,-0.8 1.5,-2.6 1.5,-3 0,-1.6 -0.9,-3 -2.4,-3.5 -0.5,-0.2 -1.1,-0.3 -1.7,-0.3 -0.4,0 -1.5,0 -2.6,0.7 -1.1,0.7 -1.4,1.7 -1.5,2.2 -0.2,0.5 -0.2,0.9 -0.2,1.1 H 56 c 0,-0.2 -0.1,-0.8 0.4,-1.1 z" style="stroke-width:0.196" />
  </g>
  <g>
    <path fill="#ffffff" d="M 73.1 5.699 C 71.4 6.699 71.1 7.201 70.4 8.301 C 70.3 8.501 70.3 8.599 70.2 8.699 C 69.8 9.399 69.4 10.1 69 11.1 C 68.1 13.4 67.5 16.6 67.6 21.1 C 67.6 21.1 67.1 31.7 77.1 30.7 C 77.1 30.7 77.8 31.5 78.8 32.5 C 79.2 32.9 79.6 33.4 80.1 33.8 C 82 35.8 84.3 38.2 85.4 39 C 85.4 39 84.4 35.9 83.9 33 C 83.7 32 83.6 31.1 83.5 30.3 C 84.8 29.6 86.3 28.8 87.5 27.7 C 88.2 27.4 89 26.9 89.8 26.4 C 90.9 25.7 91.9 24.9 92.7 24 C 91.98 22.87 91.38 21.9 90.82 20.98 A 50.1 50.1 0 0 0 75.29 6.762 C 74.55 6.405 73.95 6.109 73.1 5.699 z " />
    <path d="m 77.2,28.3 c 1.7,0.1 3,-1.1 3.1,-2.7 0,-1.7 -1,-3 -2.7,-3.1 -1.7,-0.1 -2.9,1 -3.1,2.7 -0.1,1.7 1,3 2.7,3.1 z" style="stroke-width:0.196" />
    <path d="m 75.8,9.1 v 2.8 9.5 l 3.7,0.2 0.8,-6.4 0.5,-4.6 C 80.2,10.2 79.6,9.7 79,9.3 Z" style="stroke-width:0.196" />
  </g>
</svg>
